<?xml version="1.0" encoding="UTF-8" standalone="no"?>
<!-- Created with Inkscape (http://www.inkscape.org/) -->

<svg
   xmlns:dc="http://purl.org/dc/elements/1.1/"
   xmlns:cc="http://creativecommons.org/ns#"
   xmlns:rdf="http://www.w3.org/1999/02/22-rdf-syntax-ns#"
   xmlns:svg="http://www.w3.org/2000/svg"
   xmlns="http://www.w3.org/2000/svg"
   xmlns:sodipodi="http://sodipodi.sourceforge.net/DTD/sodipodi-0.dtd"
   xmlns:inkscape="http://www.inkscape.org/namespaces/inkscape"
   width="375.43781mm"
   height="285.70639mm"
   viewBox="0 0 1330.2915 1012.3455"
   id="svg2"
   version="1.1"
   inkscape:version="0.91 r"
   sodipodi:docname="logo.svg"
   inkscape:export-filename="/home/omar/Desktop/UOSHUB/static/img/icon.png"
   inkscape:export-xdpi="28.799999"
   inkscape:export-ydpi="28.799999">
  <defs
     id="defs4" />
  <sodipodi:namedview
     id="base"
     pagecolor="#ffffff"
     bordercolor="#666666"
     borderopacity="1.0"
     inkscape:pageopacity="0.0"
     inkscape:pageshadow="2"
     inkscape:zoom="0.6200653"
     inkscape:cx="445.13915"
     inkscape:cy="541.92066"
     inkscape:document-units="px"
     inkscape:current-layer="layer1"
     showgrid="false"
     showguides="false"
     inkscape:snap-center="true"
     inkscape:snap-object-midpoints="true"
     inkscape:snap-page="true"
     inkscape:snap-global="true"
     inkscape:snap-bbox="true"
     inkscape:object-paths="false"
     inkscape:snap-intersection-paths="false"
     inkscape:object-nodes="true"
     inkscape:snap-smooth-nodes="false"
     inkscape:snap-midpoints="false"
     inkscape:window-width="1920"
     inkscape:window-height="1056"
     inkscape:window-x="0"
     inkscape:window-y="24"
     inkscape:window-maximized="1"
     fit-margin-top="0"
     fit-margin-left="0"
     fit-margin-right="0"
     fit-margin-bottom="0"
     inkscape:showpageshadow="true"
     showborder="true"
     units="px" />
  <metadata
     id="metadata7">
    <rdf:RDF>
      <cc:Work
         rdf:about="">
        <dc:format>image/svg+xml</dc:format>
        <dc:type
           rdf:resource="http://purl.org/dc/dcmitype/StillImage" />
        <dc:title></dc:title>
      </cc:Work>
    </rdf:RDF>
  </metadata>
  <g
     inkscape:label="Layer 1"
     inkscape:groupmode="layer"
     id="layer1"
     transform="translate(-5112.0688,-2708.278)">
    <path
       style="fill:none;fill-rule:evenodd;stroke:#37474f;stroke-width:18;stroke-linecap:butt;stroke-linejoin:miter;stroke-miterlimit:4;stroke-dasharray:none;stroke-opacity:1"
       d="M 6243.7521,2955.7737 5907.2183,3252.1111 5219.7876,2944.519"
       id="path4228"
       inkscape:connector-curvature="0"
       sodipodi:nodetypes="ccc" />
    <path
       style="fill:none;fill-rule:evenodd;stroke:#37474f;stroke-width:18;stroke-linecap:butt;stroke-linejoin:miter;stroke-miterlimit:4;stroke-dasharray:none;stroke-opacity:1"
       d="m 5418.2191,3275.759 488.9993,-23.6479 427.4233,325.3389"
       id="path4230"
       inkscape:connector-curvature="0"
       sodipodi:nodetypes="ccc" />
    <path
       style="fill:none;fill-rule:evenodd;stroke:#37474f;stroke-width:18;stroke-linecap:butt;stroke-linejoin:miter;stroke-miterlimit:4;stroke-dasharray:none;stroke-opacity:1"
       d="m 5696.1976,2815.9967 211.0207,436.1143 -489.7708,360.7942"
       id="path4232"
       inkscape:connector-curvature="0"
       sodipodi:nodetypes="ccc" />
    <circle
       r="107.71863"
       cy="6625.4678"
       cx="1955.5594"
       id="circle4193"
       style="opacity:1;fill:#1976d2;fill-opacity:1;stroke:none;stroke-width:40;stroke-linecap:round;stroke-linejoin:miter;stroke-miterlimit:4;stroke-dasharray:none;stroke-opacity:1"
       transform="matrix(0.66623471,-0.74574212,0.74574212,0.66623471,0,0)"
       inkscape:transform-center-y="-547.5957"
       inkscape:transform-center-x="-49.615813" />
    <circle
       style="opacity:1;fill:#37474f;fill-opacity:1;stroke:none;stroke-width:29.99999809;stroke-linecap:round;stroke-linejoin:miter;stroke-miterlimit:4;stroke-dasharray:none;stroke-opacity:1"
       id="path4213"
       cx="5899.3936"
       cy="3240.7673"
       r="254.29518" />
    <circle
       inkscape:transform-center-y="-230.82937"
       inkscape:transform-center-x="-499.03967"
       transform="matrix(0.97894897,0.20410513,-0.20410513,0.97894897,0,0)"
       style="opacity:1;fill:#d32f2f;fill-opacity:1;stroke:none;stroke-width:40;stroke-linecap:round;stroke-linejoin:miter;stroke-miterlimit:4;stroke-dasharray:none;stroke-opacity:1"
       id="circle4219"
       cx="6931.4668"
       cy="2209.208"
       r="107.71863" />
    <circle
       r="107.71863"
       cy="-4015.9407"
       cx="5125.8208"
       id="circle4223"
       style="opacity:1;fill:#00796b;fill-opacity:1;stroke:none;stroke-width:40;stroke-linecap:round;stroke-linejoin:miter;stroke-miterlimit:4;stroke-dasharray:none;stroke-opacity:1"
       transform="matrix(0.31271425,0.94984725,-0.94984725,0.31271425,0,0)"
       inkscape:transform-center-x="-449.42358"
       inkscape:transform-center-y="316.76623" />
    <circle
       inkscape:transform-center-y="456.32959"
       transform="matrix(-0.66623471,0.74574212,-0.74574212,-0.66623471,0,0)"
       style="opacity:1;fill:#388e3c;fill-opacity:1;stroke:none;stroke-width:40;stroke-linecap:round;stroke-linejoin:miter;stroke-miterlimit:4;stroke-dasharray:none;stroke-opacity:1"
       id="circle4227"
       cx="-1694.9973"
       cy="-6124.0093"
       r="107.71863"
       inkscape:transform-center-x="41.3465" />
    <circle
       r="107.71863"
       cy="-2100.9146"
       cx="-5972.7593"
       id="circle4231"
       style="opacity:1;fill:#f57c00;fill-opacity:1;stroke:none;stroke-width:40;stroke-linecap:round;stroke-linejoin:miter;stroke-miterlimit:4;stroke-dasharray:none;stroke-opacity:1"
       transform="matrix(-0.97894897,-0.20410513,0.20410513,-0.97894897,0,0)"
       inkscape:transform-center-x="415.86646"
       inkscape:transform-center-y="192.3575" />
    <circle
       inkscape:transform-center-y="-316.76653"
       inkscape:transform-center-x="449.42372"
       transform="matrix(-0.31271425,-0.94984725,0.94984725,-0.31271425,0,0)"
       style="opacity:1;fill:#7b1fa2;fill-opacity:1;stroke:none;stroke-width:40;stroke-linecap:round;stroke-linejoin:miter;stroke-miterlimit:4;stroke-dasharray:none;stroke-opacity:1"
       id="circle4235"
       cx="-4429.145"
       cy="4037.2078"
       r="107.71863" />
    <path
       id="path4215"
       d="m 6002.9558,3231.6328 2.7403,48.1073 q 0.6089,10.5045 -12.4837,19.4865 -13.0924,8.9821 -35.776,14.2344 -22.6834,5.2522 -49.1729,5.2522 -26.4895,0 -49.173,-5.2522 -22.6837,-5.2523 -35.7761,-14.2344 -13.0925,-8.982 -12.4836,-19.4865 l 2.7403,-48.1073 87.385,27.5551 q 3.3492,1.0657 7.3074,1.0657 3.9582,0 7.3074,-1.0657 z m 80.6864,-49.3254 q 0,3.5016 -3.3492,4.7194 l -170.5072,53.5881 q -0.6089,0.1522 -1.5223,0.1522 -0.9135,0 -1.5223,-0.1522 l -99.2596,-31.3612 q -6.5463,5.1761 -10.8089,16.9745 -4.2628,11.7986 -5.1761,27.1746 9.591,5.4806 9.591,16.594 0,10.5045 -8.8299,16.2895 l 8.8299,65.9193 q 0.3044,2.1313 -1.2179,3.8059 -1.3702,1.6747 -3.6538,1.6747 l -29.2297,0 q -2.2837,0 -3.6538,-1.6747 -1.5223,-1.6746 -1.2179,-3.8059 l 8.8298,-65.9193 q -8.8298,-5.785 -8.8298,-16.2895 0,-11.1134 9.8956,-16.8984 1.6745,-31.5135 14.9193,-50.2387 l -50.6954,-15.8329 q -3.3492,-1.2178 -3.3492,-4.7194 0,-3.5014 3.3492,-4.7193 l 170.5072,-53.5879 q 0.6088,-0.1522 1.5223,-0.1522 0.9134,0 1.5223,0.1522 l 170.5072,53.5879 q 3.3492,1.2179 3.3492,4.7193 z"
       horiz-adv-x="2304"
       unicode="ï†"
       inkscape:connector-curvature="0"
       style="fill:#ffffff" />
  </g>
</svg>
