<?xml version="1.0" encoding="UTF-8" standalone="no"?>
<!-- Created with Inkscape (http://www.inkscape.org/) -->

<svg
   xmlns:dc="http://purl.org/dc/elements/1.1/"
   xmlns:cc="http://creativecommons.org/ns#"
   xmlns:rdf="http://www.w3.org/1999/02/22-rdf-syntax-ns#"
   xmlns:svg="http://www.w3.org/2000/svg"
   xmlns="http://www.w3.org/2000/svg"
   xmlns:sodipodi="http://sodipodi.sourceforge.net/DTD/sodipodi-0.dtd"
   xmlns:inkscape="http://www.inkscape.org/namespaces/inkscape"
   width="55"
   height="32"
   viewBox="0 0 55.000000 32.000000"
   id="svg2"
   version="1.1"
   inkscape:version="0.91 r"
   sodipodi:docname="logo.svg"
   inkscape:export-xdpi="900"
   inkscape:export-ydpi="900">
  <defs
     id="defs4" />
  <sodipodi:namedview
     id="base"
     pagecolor="#ffffff"
     bordercolor="#666666"
     borderopacity="1.0"
     inkscape:pageopacity="0.0"
     inkscape:pageshadow="2"
     inkscape:zoom="15.999999"
     inkscape:cx="33.744672"
     inkscape:cy="10.100403"
     inkscape:document-units="px"
     inkscape:current-layer="layer1"
     showgrid="false"
     showguides="false"
     inkscape:object-nodes="true"
     fit-margin-top="0"
     fit-margin-left="0"
     fit-margin-right="0"
     fit-margin-bottom="0"
     inkscape:snap-page="true"
     inkscape:object-paths="true"
     inkscape:snap-midpoints="true"
     inkscape:snap-object-midpoints="true"
     inkscape:snap-center="true"
     inkscape:snap-global="true"
     inkscape:snap-smooth-nodes="true"
     inkscape:window-width="1920"
     inkscape:window-height="1056"
     inkscape:window-x="0"
     inkscape:window-y="24"
     inkscape:window-maximized="1"
     units="px" />
  <metadata
     id="metadata7">
    <rdf:RDF>
      <cc:Work
         rdf:about="">
        <dc:format>image/svg+xml</dc:format>
        <dc:type
           rdf:resource="http://purl.org/dc/dcmitype/StillImage" />
        <dc:title />
      </cc:Work>
    </rdf:RDF>
  </metadata>
  <g
     inkscape:label="Layer 1"
     inkscape:groupmode="layer"
     id="layer1"
     transform="translate(1013.6429,207.67126)">
    <rect
       ry="2"
       y="-207.67126"
       x="-1013.6429"
       height="32"
       width="55"
       id="rect4227"
       style="opacity:1;fill:#ff4081;fill-opacity:1;stroke:none;stroke-width:0.74503011;stroke-linecap:round;stroke-linejoin:miter;stroke-miterlimit:4;stroke-dasharray:none;stroke-opacity:1" />
    <text
       sodipodi:linespacing="125%"
       id="text4144"
       y="91.325066"
       x="211.37569"
       style="font-style:normal;font-variant:normal;font-weight:bold;font-stretch:normal;font-size:40px;line-height:125%;font-family:Sawasdee;-inkscape-font-specification:'Sawasdee, Bold';text-align:start;letter-spacing:0px;word-spacing:0px;writing-mode:lr-tb;text-anchor:start;fill:#000000;fill-opacity:1;stroke:none;stroke-width:1px;stroke-linecap:butt;stroke-linejoin:miter;stroke-opacity:1"
       xml:space="preserve"><tspan
         sodipodi:role="line"
         id="tspan4161"
         x="211.37569"
         y="91.325066" /></text>
    <path
       style="font-style:normal;font-variant:normal;font-weight:bold;font-stretch:normal;font-size:40px;line-height:125%;font-family:Sawasdee;-inkscape-font-specification:'Sawasdee, Bold';text-align:start;letter-spacing:0px;word-spacing:0px;writing-mode:lr-tb;text-anchor:start;fill:#fafafa;fill-opacity:1;stroke:none;stroke-width:1px;stroke-linecap:butt;stroke-linejoin:miter;stroke-opacity:1"
       d="m -1003.8503,-191.03276 c -0.7882,1.30339 -0.3707,2.99902 0.9327,3.7873 0.8965,0.54125 2.0223,0.52797 2.9058,-0.0341 l 6.02893,3.64631 c 1.48377,0.89739 3.05949,1.16688 4.72718,0.80849 1.67296,-0.36716 2.9502,-1.27947 3.83164,-2.7369 0.71656,-1.18482 0.98536,-2.43488 0.82087,-3.74839 0.002,0.002 0.006,0.003 0.008,0.005 l 6.02903,3.64632 c -0.0875,1.04352 0.42346,2.04665 1.3191,2.58925 1.30339,0.78828 2.999,0.3707 3.78729,-0.93269 0.78828,-1.30338 0.3707,-2.999 -0.93268,-3.78728 -0.89773,-0.54263 -2.02556,-0.52897 -2.90993,0.0351 l -6.02639,-3.6447 c -0.97455,-0.58942 -1.60614,-1.37909 -1.89477,-2.36905 -0.28862,-0.98993 -0.14488,-1.95823 0.36486,-2.80108 0.50975,-0.84285 1.30056,-1.41979 2.31134,-1.62389 1.01078,-0.20408 2.00344,-0.0114 2.97798,0.57797 l 6.02639,3.64473 c -0.089,1.04519 0.42271,2.05038 1.32015,2.59348 1.30338,0.78827 2.99901,0.3707 3.78729,-0.93268 0.78828,-1.30338 0.37071,-2.99902 -0.93268,-3.78729 -0.89647,-0.54126 -2.02215,-0.52797 -2.9057,0.0341 l -6.02903,-3.64632 c -1.48378,-0.89738 -3.0595,-1.16687 -4.72717,-0.80849 -1.67298,0.36717 -2.95021,1.27948 -3.83165,2.7369 -0.71664,1.18496 -0.98418,2.43553 -0.81956,3.7492 -0.003,-0.002 -0.006,-0.004 -0.009,-0.006 l -6.02902,-3.64632 c 0.0875,-1.04352 -0.42346,-2.04666 -1.3191,-2.58925 -1.30336,-0.78828 -2.99906,-0.37069 -3.78736,0.93268 -0.7882,1.30339 -0.3706,2.99902 0.9327,3.7873 0.8978,0.54261 2.0256,0.52897 2.90997,-0.0352 l 6.0264,3.64472 c 0.97455,0.5894 1.60613,1.37907 1.89477,2.36903 0.28862,0.98994 0.14488,1.95824 -0.36487,2.80109 -0.50975,0.84285 -1.30057,1.41979 -2.31134,1.62389 -1.01076,0.20407 -2.00343,0.0115 -2.97798,-0.57797 l -6.02635,-3.64473 c 0.089,-1.04519 -0.4227,-2.05038 -1.32021,-2.59349 -1.3034,-0.78827 -2.999,-0.37069 -3.7873,0.93268 z"
       id="path4206"
       inkscape:connector-curvature="0" />
  </g>
</svg>
