<?xml version="1.0" encoding="UTF-8" standalone="no"?>
<!-- Created with Inkscape (http://www.inkscape.org/) -->

<svg
   xmlns:dc="http://purl.org/dc/elements/1.1/"
   xmlns:cc="http://creativecommons.org/ns#"
   xmlns:rdf="http://www.w3.org/1999/02/22-rdf-syntax-ns#"
   xmlns:svg="http://www.w3.org/2000/svg"
   xmlns="http://www.w3.org/2000/svg"
   xmlns:sodipodi="http://sodipodi.sourceforge.net/DTD/sodipodi-0.dtd"
   xmlns:inkscape="http://www.inkscape.org/namespaces/inkscape"
   width="160"
   height="125"
   viewBox="0 0 160 125"
   id="svg2"
   version="1.1"
   inkscape:version="0.91 r"
   sodipodi:docname="uos_logo.svg">
  <defs
     id="defs4" />
  <sodipodi:namedview
     id="base"
     pagecolor="#ffffff"
     bordercolor="#666666"
     borderopacity="1.0"
     inkscape:pageopacity="0.0"
     inkscape:pageshadow="2"
     inkscape:zoom="2"
     inkscape:cx="279.32262"
     inkscape:cy="-66.595644"
     inkscape:document-units="px"
     inkscape:current-layer="layer1"
     showgrid="false"
     fit-margin-top="0"
     fit-margin-left="0"
     fit-margin-right="0"
     fit-margin-bottom="0"
     units="px"
     inkscape:snap-page="true"
     inkscape:window-width="1920"
     inkscape:window-height="1056"
     inkscape:window-x="0"
     inkscape:window-y="24"
     inkscape:window-maximized="1" />
  <metadata
     id="metadata7">
    <rdf:RDF>
      <cc:Work
         rdf:about="">
        <dc:format>image/svg+xml</dc:format>
        <dc:type
           rdf:resource="http://purl.org/dc/dcmitype/StillImage" />
        <dc:title></dc:title>
      </cc:Work>
    </rdf:RDF>
  </metadata>
  <g
     inkscape:label="Layer 1"
     inkscape:groupmode="layer"
     id="layer1"
     transform="translate(-110.70851,-530.53528)">
    <path
       style="opacity:1;fill:#ffffff;fill-opacity:1;stroke:none;stroke-width:0.1;stroke-linecap:round;stroke-miterlimit:4;stroke-dasharray:none;stroke-opacity:1"
       d="m 190.04632,547.92724 c -0.0315,-0.0169 -0.075,0.029 -0.13112,0.13702 -0.0248,0.0476 -0.0527,0.0928 -0.0622,0.10053 -0.009,0.008 -0.0221,0.0326 -0.0286,0.0551 -0.0161,0.0568 -0.0452,0.441 -0.0452,0.60229 -8e-5,0.15023 -0.009,0.17745 -0.0739,0.22671 -0.0225,0.0172 -0.05,0.0522 -0.0611,0.0779 -0.011,0.0255 -0.0385,0.0717 -0.0622,0.10251 -0.0566,0.0741 -0.073,0.13339 -0.073,0.26517 0,0.0983 0.002,0.11342 0.0276,0.14786 0.0152,0.021 0.0366,0.0504 0.0472,0.0661 0.0362,0.0529 0.0771,0.0927 0.11731,0.11335 0.0678,0.0348 0.0708,0.0441 0.0572,0.14984 -0.006,0.0513 -0.0225,0.14164 -0.0354,0.20011 -0.0129,0.0585 -0.0331,0.15124 -0.0452,0.207 -0.0219,0.10089 -0.0374,0.24142 -0.0502,0.44555 -0.01,0.15071 -0.0355,0.30203 -0.0611,0.36077 -0.0119,0.0275 -0.0301,0.10632 -0.0404,0.17449 -0.0102,0.0682 -0.023,0.13912 -0.0286,0.15771 -0.006,0.0185 -0.0149,0.10166 -0.0217,0.18532 -0.0173,0.21334 -0.0304,0.29813 -0.074,0.48497 -0.003,0.0119 -0.002,0.0223 -0.005,0.0334 -0.005,0.0201 -0.003,0.0271 -0.009,0.0493 -0.0177,0.0697 -0.04,0.2162 -0.0493,0.32627 -8e-4,0.0136 -0.002,0.0186 -0.003,0.0315 -0.003,0.0333 -0.009,0.0409 -0.0128,0.0828 -0.0213,0.23061 -0.03,0.28704 -0.073,0.4623 -0.006,0.0267 -0.009,0.0746 -0.0147,0.10055 -0.0202,0.0969 -0.0385,0.21747 -0.0541,0.36471 -0.006,0.0566 -0.0134,0.0688 -0.0206,0.14294 -0.0169,0.17257 -0.0338,0.27807 -0.0622,0.38937 -0.0408,0.16068 -0.0614,0.30256 -0.0907,0.63579 -0.0207,0.23472 -0.0198,0.22836 -0.064,0.35979 -0.0325,0.0973 -0.033,0.10576 -0.0296,0.27601 0.003,0.16847 0.005,0.17699 0.0344,0.22672 0.0174,0.029 0.0483,0.1182 0.0701,0.20207 0.014,0.0541 0.0258,0.0823 0.0385,0.11532 0.003,0.008 0.008,0.0297 0.01,0.0334 8e-4,0.002 0.002,0.003 0.003,0.005 0.0225,0.0481 0.0537,0.0946 0.11435,0.17348 0.0137,0.0179 0.0392,0.0353 0.0582,0.0562 0.0651,0.0726 0.1323,0.14036 0.18926,0.18236 0.005,0.003 0.0113,0.0127 0.0157,0.0157 0.0186,0.0125 0.0704,0.034 0.11534,0.0482 0.0448,0.0141 0.0818,0.0301 0.0818,0.0354 0,0.006 -0.013,0.0388 -0.0286,0.074 -0.0155,0.0349 -0.0277,0.0692 -0.0277,0.0759 0,1.6e-4 7.9e-4,0.002 7.9e-4,0.002 l -7.9e-4,8e-4 0.004,0.01 c 0.003,0.0133 0.0115,0.04 0.0256,0.0759 l 0.0266,0.0691 c -3.5e-4,0.007 -0.005,0.0155 -0.008,0.0226 l -0.0197,0.0286 c -0.0171,0.0247 -0.0775,0.0871 -0.13407,0.13801 -0.0201,0.0181 -0.035,0.0365 -0.0542,0.0553 -0.011,0.0105 -0.0305,0.0271 -0.0364,0.0334 -0.007,0.008 -0.007,0.0101 -0.0138,0.0177 -0.0773,0.0813 -0.14463,0.16093 -0.16856,0.21293 -0.007,0.0166 -0.0104,0.0364 -0.0157,0.0551 -0.002,0.009 -0.006,0.019 -0.008,0.0286 -0.0109,0.052 -0.015,0.1041 -0.005,0.14193 7.9e-4,0.003 0.007,0.01 0.009,0.0138 0.004,0.0104 0.0146,0.0263 0.0226,0.0373 0.0121,0.0197 0.0185,0.0371 0.0345,0.0552 0.0299,0.0338 0.0661,0.0779 0.0799,0.0976 0.0137,0.0197 0.0588,0.0589 0.10053,0.0868 0.0416,0.0279 0.10829,0.0803 0.14786,0.11631 l 0.072,0.0661 -0.002,0.19517 c -0.003,0.25432 -0.0169,0.424 -0.0404,0.48006 -0.0103,0.0247 -0.0363,0.0638 -0.0572,0.0867 -0.0208,0.023 -0.0528,0.0717 -0.071,0.10745 -0.0181,0.0357 -0.0486,0.085 -0.0681,0.10941 -0.0195,0.0245 -0.0543,0.0749 -0.0769,0.11237 -0.0225,0.0375 -0.0598,0.0942 -0.0828,0.12519 -0.0229,0.0309 -0.0543,0.082 -0.07,0.11337 -0.0156,0.0312 -0.0471,0.0791 -0.0701,0.10646 -0.0228,0.0273 -0.0616,0.0897 -0.0858,0.13898 -0.0243,0.0492 -0.0635,0.11074 -0.0877,0.13701 -0.0241,0.0263 -0.0566,0.0726 -0.072,0.10252 -0.0152,0.0299 -0.0443,0.0702 -0.0641,0.0887 -0.0197,0.0186 -0.0557,0.0726 -0.0799,0.12025 -0.0241,0.0476 -0.058,0.10375 -0.076,0.12421 -0.0178,0.0204 -0.0482,0.0672 -0.0671,0.10448 -0.0187,0.0371 -0.056,0.0979 -0.0838,0.13505 -0.0276,0.0371 -0.0645,0.0932 -0.0818,0.1242 -0.0174,0.031 -0.0502,0.0786 -0.073,0.10646 -0.0226,0.0279 -0.0625,0.0909 -0.0887,0.13998 -0.0262,0.0491 -0.0624,0.10792 -0.0799,0.13012 -0.0176,0.0221 -0.0513,0.0717 -0.074,0.1104 -0.0178,0.0306 -0.0302,0.0464 -0.0394,0.056 -0.0113,0.0116 -0.0181,0.0259 -0.0296,0.0334 -0.002,8e-4 -0.006,0.007 -0.009,0.009 -0.0277,0.0202 -0.0583,0.0469 -0.0681,0.0652 -0.011,0.0204 -0.0398,0.0476 -0.0641,0.0602 -0.03,0.0155 -0.0533,0.0404 -0.0691,0.0739 -5.1e-4,7.9e-4 -0.006,0.005 -0.007,0.006 -0.0207,0.0399 -0.0285,0.14306 -0.0137,0.18729 0.007,0.0221 0.032,0.0565 0.0541,0.076 0.0385,0.0337 0.0413,0.0349 0.11928,0.0276 0.11993,-0.0114 0.298,-0.0468 0.41796,-0.0838 0.13222,-0.0406 0.19268,-0.0525 0.40611,-0.075 0.19238,-0.0201 0.36452,-0.0512 0.42583,-0.0769 0.0229,-0.01 0.0711,-0.0222 0.10647,-0.0286 0.34744,-0.0622 1.65822,-0.0758 2.0927,-0.0217 0.0495,0.006 0.19151,0.0311 0.31545,0.0552 0.34887,0.0678 0.77146,0.10752 0.84181,0.0799 0.0219,-0.009 0.0448,-0.0385 0.0602,-0.0671 3.2e-4,-8e-4 -3.1e-4,-8e-4 0,-0.002 0.006,-0.0126 0.0157,-0.0258 0.0157,-0.0354 1e-5,-0.002 -0.008,-0.012 -0.009,-0.0157 -0.002,-0.009 -0.0161,-0.0284 -0.0237,-0.0413 -0.0341,-0.0597 -0.0935,-0.13826 -0.13603,-0.1656 -0.0757,-0.0485 -0.18085,-0.16353 -0.23559,-0.25727 -0.0248,-0.0424 -0.0534,-0.0849 -0.0642,-0.0937 -0.0105,-0.009 -0.0456,-0.0569 -0.0779,-0.10648 -0.0321,-0.0495 -0.0776,-0.11171 -0.10052,-0.13898 -0.0229,-0.0272 -0.0549,-0.0731 -0.0711,-0.10153 -0.0162,-0.0285 -0.046,-0.07 -0.066,-0.0917 -0.02,-0.0217 -0.0468,-0.0589 -0.0592,-0.0838 -0.0124,-0.0248 -0.0458,-0.0762 -0.0749,-0.11336 -0.029,-0.0371 -0.072,-0.10069 -0.0956,-0.14096 -0.0237,-0.0402 -0.0571,-0.0851 -0.074,-0.10055 -0.0165,-0.0154 -0.0425,-0.0519 -0.0571,-0.0809 -0.0146,-0.0288 -0.0508,-0.0848 -0.0809,-0.1242 -0.03,-0.0394 -0.0689,-0.0963 -0.0868,-0.12716 -0.0178,-0.0309 -0.0538,-0.0795 -0.0799,-0.10744 -0.0259,-0.028 -0.0587,-0.073 -0.072,-0.0996 -0.0134,-0.0265 -0.0413,-0.0668 -0.0622,-0.0897 -0.0207,-0.0229 -0.0608,-0.0798 -0.0897,-0.12617 -0.0707,-0.11323 -0.16573,-0.25293 -0.21784,-0.32037 -0.0757,-0.0979 -0.1725,-0.26808 -0.18926,-0.33219 -0.0208,-0.0801 -0.0324,-0.3862 -0.0178,-0.44259 0.002,-0.003 2.7e-4,-0.0105 0.002,-0.0138 0.0101,-0.0235 0.0333,-0.0408 0.10546,-0.0739 0.0523,-0.0241 0.11723,-0.0637 0.14393,-0.0878 0.0266,-0.0241 0.0656,-0.055 0.0858,-0.069 0.006,-0.004 0.0133,-0.0213 0.0197,-0.0286 0.0124,-0.0142 0.0258,-0.0341 0.0384,-0.0561 0.0111,-0.0192 0.0192,-0.03 0.0295,-0.0521 5.1e-4,-0.002 8e-4,-0.002 0.002,-0.004 0.003,-0.007 0.003,-0.0125 0.006,-0.0197 0.0178,-0.0416 0.0378,-0.0852 0.0443,-0.12027 0.0114,-0.0615 0.01,-0.0788 -0.0187,-0.18432 -0.0172,-0.064 -0.0367,-0.1266 -0.0433,-0.13899 -0.006,-0.0123 -0.0694,-0.0819 -0.13998,-0.15476 -0.0225,-0.0232 -0.035,-0.0385 -0.0522,-0.0571 -0.0231,-0.0247 -0.0454,-0.0511 -0.0601,-0.072 -0.0581,-0.0795 -0.0653,-0.1408 -0.062,-0.30657 l 7.9e-4,-0.0443 c 0.002,-0.0157 0.003,-0.0455 0.006,-0.0552 l 0.0927,-0.0868 c 0.10463,-0.0976 0.1899,-0.19001 0.25924,-0.27402 0.0114,-0.0122 0.01,-0.009 0.0217,-0.0217 0.0177,-0.0189 0.03,-0.0464 0.0472,-0.073 0.0149,-0.0221 0.0412,-0.0521 0.0502,-0.0701 0.0252,-0.0503 0.0606,-0.11144 0.0789,-0.13701 0.0145,-0.0203 0.0246,-0.0514 0.0354,-0.0799 2.3e-4,-4.9e-4 8e-4,-0.002 8e-4,-0.002 0.015,-0.0402 0.0266,-0.0886 0.0344,-0.14393 1.9e-4,-8e-4 -1.7e-4,-0.002 0,-0.004 0.008,-0.0601 0.004,-0.14173 0.004,-0.21784 -2e-4,-0.0521 0.009,-0.0985 0.003,-0.15181 -0.005,-0.0474 -0.01,-0.0728 -0.0147,-0.11435 -0.003,-0.027 5.1e-4,-0.0437 -0.003,-0.072 -0.006,-0.0496 -0.0145,-0.0817 -0.0226,-0.13207 -0.006,-0.0422 -0.0133,-0.0779 -0.0197,-0.11139 -0.006,-0.0303 -0.0121,-0.0822 -0.0168,-0.0996 -0.0463,-0.17496 -0.056,-0.23301 -0.0809,-0.44753 -0.002,-0.0176 -0.007,-0.0281 -0.009,-0.0433 -0.003,-0.0288 -0.005,-0.0349 -0.008,-0.069 -0.008,-0.0789 -0.0356,-0.20754 -0.0622,-0.28685 -0.008,-0.0239 -0.009,-0.0557 -0.0157,-0.0799 -0.0169,-0.0639 -0.0388,-0.20122 -0.0532,-0.33909 -0.0243,-0.23463 -0.0437,-0.34817 -0.0947,-0.53623 -0.0153,-0.0571 -0.0447,-0.23159 -0.0641,-0.3874 -0.0122,-0.0991 -0.0217,-0.15033 -0.0325,-0.21686 -0.002,-0.0126 -0.005,-0.0361 -0.007,-0.0473 -0.003,-0.0181 -0.01,-0.0698 -0.0118,-0.0769 -0.0559,-0.20046 -0.0728,-0.2849 -0.0887,-0.43271 -0.007,-0.0704 -0.0158,-0.11628 -0.0237,-0.17153 -0.003,-0.0324 -0.01,-0.10222 -0.01,-0.10351 0,-2e-5 -0.004,2e-5 -0.004,0 -0.0158,-0.0926 -0.0325,-0.16798 -0.0532,-0.22574 -0.0296,-0.0825 -0.0626,-0.27715 -0.0789,-0.47215 -0.0176,-0.20955 -0.0278,-0.26186 -0.076,-0.37556 -0.0286,-0.0675 -0.0377,-0.11467 -0.0611,-0.3253 l -0.0276,-0.24643 0.0266,-0.0277 c 0.0142,-0.0154 0.0448,-0.0404 0.0681,-0.0553 0.0231,-0.0146 0.0519,-0.046 0.0642,-0.07 0.0121,-0.0238 0.04,-0.0669 0.0621,-0.0956 0.0308,-0.0404 0.0431,-0.0712 0.0533,-0.13208 l 0.0128,-0.0789 -0.0452,-0.0642 c -0.0247,-0.0356 -0.057,-0.10056 -0.072,-0.14391 -0.0192,-0.0559 -0.0396,-0.0923 -0.072,-0.12421 -0.0712,-0.0704 -0.0894,-0.1039 -0.11731,-0.22474 -0.0142,-0.062 -0.0373,-0.15349 -0.0521,-0.20306 -0.0354,-0.11846 -0.0489,-0.18903 -0.0622,-0.33615 -0.006,-0.067 -0.0184,-0.13959 -0.0276,-0.16165 -0.0181,-0.0432 -0.16387,-0.21128 -0.2001,-0.23065 z m 0.61213,17.29857 c -0.0217,-0.005 -0.05,0.006 -0.0966,0.0315 -0.12367,0.066 -0.6117,0.77239 -0.61017,0.88323 8e-4,0.0707 0.23866,0.33946 0.93053,1.05472 0.16182,0.16729 0.31881,0.30458 0.34894,0.30458 0.0499,0 0.25184,-0.41513 0.25234,-0.51948 1.5e-4,-0.0243 0.0269,-0.0948 0.0592,-0.15672 0.0322,-0.062 0.0934,-0.21922 0.13603,-0.34993 0.0735,-0.22535 0.0735,-0.24303 -8e-4,-0.33811 -0.11453,-0.14639 -0.81268,-0.75409 -0.86646,-0.75409 -0.0252,0 -0.0679,-0.0398 -0.0946,-0.0897 -0.0212,-0.0397 -0.0363,-0.0613 -0.0581,-0.066 z m -2.24451,0.004 c -0.0607,-0.0107 -0.13189,0.0451 -0.36472,0.24249 -0.18079,0.15322 -0.42959,0.36332 -0.553,0.46624 -0.41031,0.34231 -0.4407,0.38162 -0.41597,0.53921 0.0124,0.0791 0.046,0.28586 0.075,0.45935 0.0288,0.17348 0.062,0.38077 0.074,0.46132 l 8e-4,0 c 0.0388,0.26171 0.1426,0.20076 0.94136,-0.55201 0.31558,-0.29742 0.62075,-0.58376 0.67818,-0.63679 0.10779,-0.0997 0.10852,-0.23332 0.002,-0.37654 -0.0277,-0.0371 -0.10086,-0.16626 -0.16265,-0.28684 -0.0619,-0.1206 -0.15727,-0.24943 -0.21192,-0.28586 -0.0234,-0.0156 -0.0428,-0.027 -0.0632,-0.0305 z m 4.35397,0.18827 c -0.0277,-0.002 -0.0477,0.006 -0.0622,0.0237 -0.0853,0.10275 0.0791,0.92722 0.19912,0.99951 0.114,0.0688 1.41824,0.91876 1.59689,1.04094 0.0865,0.0592 0.18131,0.10743 0.21094,0.10743 0.0925,0 0.11429,-0.17422 0.0404,-0.32231 -0.0388,-0.078 -0.0711,-0.1758 -0.0711,-0.21786 0,-0.20833 -0.11242,-0.37476 -0.39922,-0.58848 -0.16439,-0.1225 -0.33306,-0.24793 -0.37459,-0.27897 -0.0414,-0.0309 -0.12023,-0.0871 -0.17445,-0.1242 -0.0542,-0.0371 -0.22249,-0.16023 -0.37459,-0.27305 -0.34673,-0.25717 -0.50811,-0.36011 -0.59145,-0.36669 z m -6.73549,0.14688 c -0.0534,-0.003 -0.1367,0.0391 -0.25432,0.1242 -0.32696,0.23652 -0.66983,0.47649 -1.02514,0.71664 -0.34403,0.23249 -0.46678,0.36884 -0.623,0.69098 -0.17987,0.37099 -0.22335,0.49198 -0.19418,0.53919 0.022,0.0356 0.0529,0.0313 0.10548,-0.0137 0.0409,-0.0349 0.10608,-0.0751 0.14489,-0.0888 0.0388,-0.0136 0.25002,-0.15025 0.46921,-0.3036 0.21919,-0.15335 0.44011,-0.29703 0.49187,-0.31937 0.0517,-0.0223 0.21602,-0.13034 0.36473,-0.24052 0.1487,-0.11019 0.29321,-0.2014 0.32035,-0.20306 0.10612,-0.006 0.19377,-0.17396 0.24447,-0.46527 0.051,-0.29312 0.0445,-0.43041 -0.0443,-0.43668 z m 11.37729,0.13013 c -0.033,0.005 -0.0571,0.0289 -0.0571,0.072 0,0.02 0.0249,0.0587 0.0571,0.0887 0.0312,0.0291 0.0667,0.0724 0.0789,0.0956 0.0122,0.0233 0.0478,0.0575 0.0789,0.0769 0.031,0.0192 0.0668,0.0555 0.0799,0.0809 0.013,0.0253 0.0449,0.0575 0.071,0.0711 0.026,0.0133 0.0592,0.0461 0.073,0.073 0.0138,0.0268 0.0504,0.063 0.0809,0.0809 0.0304,0.018 0.0654,0.0529 0.0779,0.0769 0.0124,0.024 0.0485,0.0561 0.0799,0.0711 0.0314,0.0148 0.0794,0.0474 0.10746,0.072 0.0281,0.0245 0.0908,0.0608 0.13899,0.0808 0.0482,0.02 0.10173,0.0536 0.11828,0.075 0.0165,0.0211 0.0672,0.0548 0.11237,0.0749 0.0452,0.02 0.11449,0.0609 0.15476,0.0917 0.0402,0.0307 0.0937,0.062 0.11829,0.0681 0.0245,0.006 0.0719,0.0345 0.10449,0.0641 0.0327,0.0297 0.0969,0.0652 0.14293,0.0789 0.054,0.0161 0.10092,0.0437 0.13307,0.0789 0.0276,0.0301 0.0762,0.0616 0.1104,0.0711 0.0338,0.009 0.0823,0.0358 0.10646,0.0592 0.0242,0.0232 0.0674,0.048 0.0966,0.0551 0.0292,0.007 0.0743,0.0113 0.10054,0.01 0.0418,-0.002 0.0483,-0.009 0.0483,-0.0504 0,-0.0401 -0.0113,-0.053 -0.072,-0.0848 -0.0394,-0.0205 -0.0778,-0.0489 -0.0858,-0.0632 -0.0262,-0.0464 -0.11092,-0.11436 -0.16462,-0.13209 -0.0313,-0.0104 -0.0626,-0.0354 -0.0769,-0.0632 -0.0131,-0.0254 -0.0502,-0.0602 -0.0828,-0.0769 -0.0326,-0.0168 -0.0758,-0.0527 -0.0957,-0.08 -0.0199,-0.027 -0.0583,-0.0608 -0.0858,-0.075 -0.047,-0.0243 -0.15242,-0.10326 -0.29277,-0.21982 -0.0349,-0.0291 -0.0886,-0.0652 -0.11927,-0.0809 -0.0306,-0.0156 -0.0807,-0.0492 -0.1114,-0.075 -0.092,-0.0766 -0.25819,-0.18647 -0.34303,-0.22672 -0.0437,-0.0208 -0.0939,-0.0534 -0.11138,-0.073 -0.0175,-0.0194 -0.0584,-0.0501 -0.0917,-0.0671 -0.0332,-0.0169 -0.0881,-0.0548 -0.12124,-0.0848 -0.0331,-0.03 -0.0924,-0.068 -0.13111,-0.0848 -0.0388,-0.0169 -0.0916,-0.0534 -0.11729,-0.0808 -0.0357,-0.038 -0.0773,-0.053 -0.11041,-0.0482 z m -1.91131,0.0128 c -0.0212,-0.008 -0.0451,-0.006 -0.076,0.005 -0.0293,0.01 -0.0665,0.0281 -0.0818,0.0413 -0.0243,0.0211 -0.0248,0.0273 -0.005,0.0493 0.0125,0.0138 0.0282,0.0476 0.0344,0.0739 0.0165,0.0691 0.0514,0.13369 0.0937,0.17251 0.0203,0.0186 0.05,0.0741 0.0651,0.12222 0.0178,0.0568 0.048,0.10716 0.0868,0.14491 0.0325,0.0319 0.0631,0.0795 0.0681,0.10449 0.012,0.0601 0.15964,0.18636 0.2632,0.22573 0.0437,0.0166 0.10354,0.0485 0.13306,0.071 0.0295,0.0225 0.0753,0.0459 0.10153,0.0521 0.0658,0.0157 0.14035,0.0546 0.15576,0.0809 0.0159,0.0273 0.11532,0.0779 0.17938,0.0917 0.0266,0.006 0.0755,0.0346 0.10845,0.0642 0.0367,0.0326 0.0967,0.0636 0.15475,0.0799 0.0549,0.0154 0.11576,0.0463 0.14589,0.0739 0.0298,0.0272 0.0956,0.0605 0.15376,0.0779 0.0557,0.0167 0.1174,0.0456 0.13703,0.0642 0.0196,0.0184 0.0707,0.0472 0.11336,0.0642 0.0428,0.0167 0.093,0.0301 0.11139,0.0305 0.0365,8e-4 0.0776,-0.0369 0.0927,-0.0868 0.0103,-0.034 -0.0422,-0.13504 -0.07,-0.13504 -0.009,0 -0.0361,-0.0446 -0.0611,-0.0996 -0.0249,-0.0549 -0.065,-0.1212 -0.0887,-0.14687 -0.0237,-0.0257 -0.0575,-0.073 -0.076,-0.10546 -0.0213,-0.0379 -0.0571,-0.0702 -0.0986,-0.0887 -0.0354,-0.0161 -0.0918,-0.0519 -0.12518,-0.0799 -0.0332,-0.0279 -0.0961,-0.0623 -0.13998,-0.0769 -0.0439,-0.0145 -0.0876,-0.0403 -0.0966,-0.0572 -0.009,-0.0169 -0.065,-0.0548 -0.1242,-0.0848 -0.0593,-0.0299 -0.11848,-0.0676 -0.13109,-0.0828 -0.0126,-0.0152 -0.0618,-0.0448 -0.10943,-0.0661 -0.0476,-0.0211 -0.1082,-0.056 -0.13405,-0.0779 -0.0258,-0.0217 -0.083,-0.0575 -0.12715,-0.0799 -0.0441,-0.0224 -0.0996,-0.0602 -0.12323,-0.0838 -0.0236,-0.0236 -0.0728,-0.0521 -0.10941,-0.0632 -0.0364,-0.0109 -0.0945,-0.0444 -0.12814,-0.075 -0.0336,-0.0304 -0.0943,-0.067 -0.13505,-0.0808 -0.041,-0.0139 -0.0855,-0.0426 -0.0996,-0.0642 -0.019,-0.0291 -0.0368,-0.0471 -0.058,-0.0553 z m -12.21616,0.73928 c -0.0505,-0.006 -0.0708,-0.006 -0.0907,0.003 -0.0254,0.0106 -0.076,0.0612 -0.076,0.076 0,0.0134 -0.0366,0.0317 -0.0966,0.0483 -0.072,0.0198 -0.11683,0.0452 -0.1518,0.0858 -0.03,0.0347 -0.0589,0.052 -0.12913,0.075 -0.0588,0.0191 -0.0975,0.0464 -0.11434,0.0818 -0.008,0.0176 -0.0198,0.0276 -0.0345,0.0305 -0.012,0.002 -0.0563,0.0173 -0.0986,0.0334 -0.0596,0.0227 -0.0818,0.0358 -0.0986,0.0572 -0.045,0.0571 -0.0725,0.0791 -0.11041,0.0897 -0.046,0.0129 -0.0942,0.0543 -0.10645,0.0917 -0.006,0.0207 -0.0174,0.0309 -0.0433,0.0424 -0.046,0.0203 -0.0736,0.0524 -0.0897,0.1035 -0.0133,0.0422 -0.0252,0.0556 -0.0818,0.0917 -0.0465,0.0296 -0.064,0.0694 -0.0642,0.14981 -1e-4,0.0464 -0.003,0.0717 -0.01,0.076 -0.006,0.004 0.002,0.009 0.0217,0.0118 0.0567,0.009 0.0963,0.007 0.11236,-0.004 0.009,-0.006 0.042,-0.0225 0.075,-0.0364 0.0909,-0.0384 0.10476,-0.0472 0.14786,-0.0927 0.0291,-0.0306 0.0497,-0.0441 0.076,-0.0512 0.0565,-0.0151 0.0961,-0.0392 0.13504,-0.0809 0.0284,-0.0304 0.0532,-0.0459 0.11928,-0.075 0.0893,-0.0391 0.1111,-0.0543 0.13998,-0.0996 0.0101,-0.0157 0.0281,-0.0328 0.0404,-0.0373 0.0124,-0.005 0.0412,-0.0148 0.0632,-0.0226 0.0251,-0.009 0.056,-0.0299 0.0848,-0.0571 0.0249,-0.0237 0.0824,-0.0657 0.12716,-0.0927 0.0703,-0.0421 0.0885,-0.0575 0.13013,-0.11139 0.0265,-0.0342 0.0584,-0.0676 0.0711,-0.075 0.0125,-0.007 0.0413,-0.043 0.0652,-0.0789 0.0237,-0.0357 0.0608,-0.0803 0.0828,-0.0986 0.0218,-0.0183 0.0404,-0.0392 0.0404,-0.0472 0,-0.0163 -0.0342,-0.0602 -0.056,-0.072 -0.008,-0.004 -0.0438,-0.0108 -0.0799,-0.0147 z m 3.5851,2.99069 c -0.10445,0 -0.54609,0.59379 -0.70283,0.94533 -0.0273,0.0616 -0.0662,0.12215 -0.0858,0.13505 -0.0421,0.0277 -0.44425,0.86257 -0.58652,1.21738 -0.0546,0.13632 -0.12684,0.3091 -0.1597,0.38344 -0.24565,0.55553 -0.72761,2.39538 -0.83589,3.19081 -0.0229,0.1691 -0.0617,0.38202 -0.0858,0.47315 -0.0241,0.0911 -0.0547,0.21946 -0.0681,0.28487 -0.0269,0.13238 -0.10023,0.16117 -0.552,0.21884 -0.19741,0.0251 -0.33579,0.0756 -0.47317,0.1715 -0.10677,0.0747 -0.28007,0.18876 -0.38541,0.25334 -0.23135,0.14185 -0.24554,0.25159 -0.0452,0.35586 0.0806,0.0419 0.22812,0.1271 0.32726,0.18925 0.16179,0.10144 0.21137,0.11049 0.48891,0.0868 l 0.30952,-0.0266 -0.0237,0.1725 c -0.0514,0.38175 -0.13,0.86474 -0.19025,1.16315 -0.0349,0.17351 -0.086,0.45738 -0.11336,0.63087 -0.0668,0.42234 -0.15547,0.92998 -0.22277,1.27357 -0.0302,0.15491 -0.0438,0.31179 -0.0296,0.34894 0.0142,0.0371 0.045,0.0681 0.0691,0.0681 0.0479,0 0.70309,-0.44116 1.15527,-0.77773 0.15818,-0.11773 0.32018,-0.21391 0.3598,-0.21391 0.0715,0 0.35558,0.14588 0.83294,0.42781 0.4889,0.28873 0.68911,0.38808 0.74225,0.36768 0.0388,-0.0148 0.0693,-0.43673 0.10943,-1.50128 0.0306,-0.81403 0.0654,-1.5134 0.0769,-1.5545 0.0275,-0.0976 0.11467,-0.12748 0.45935,-0.15968 0.34143,-0.0318 0.40213,-0.0751 0.76492,-0.54412 0.25615,-0.3311 0.2715,-0.36403 0.21095,-0.45048 -0.0358,-0.0513 -0.14166,-0.13877 -0.2346,-0.19517 -0.093,-0.0563 -0.2578,-0.1704 -0.3667,-0.25235 -0.18712,-0.14079 -0.21848,-0.14884 -0.57271,-0.14884 l -0.37556,0 -0.0128,-0.97981 c -0.0234,-1.77314 0.0986,-4.34818 0.23362,-4.93358 0.0688,-0.29773 0.0597,-0.62004 -0.0177,-0.62004 z m 4.69897,0.0305 c -0.0245,-0.0126 -0.0444,-0.0125 -0.0551,0.005 -0.0144,0.0233 -0.0388,0.44566 -0.0541,0.93843 -0.0153,0.49276 -0.0456,0.96701 -0.0671,1.05374 -0.0213,0.0868 -0.0597,0.67508 -0.0858,1.30707 -0.026,0.632 -0.0669,1.36131 -0.0907,1.62153 -0.0238,0.26024 -0.0548,0.71479 -0.0681,1.01038 -0.0132,0.29558 -0.0322,0.54584 -0.0424,0.55596 -0.0101,0.0101 -0.10651,0.029 -0.21391,0.0413 -0.30399,0.035 -0.50912,0.13001 -0.87335,0.40414 -0.36068,0.27148 -0.36728,0.29708 -0.10253,0.42782 0.5286,0.26101 0.84032,0.39738 0.93843,0.40907 l 0.11336,0.0128 0.0306,0.65355 c 0.0168,0.35935 0.0412,0.99811 0.0551,1.41943 0.0317,0.96919 0.0726,1.43396 0.12912,1.47072 0.038,0.0248 0.5536,-0.24069 0.61806,-0.31839 0.0123,-0.0149 0.0741,-0.0533 0.13602,-0.0848 0.14617,-0.0743 0.24619,-0.13396 0.52343,-0.31249 0.12511,-0.0806 0.24452,-0.14686 0.26516,-0.14686 0.0206,0 0.0704,-0.0298 0.1104,-0.0661 0.0747,-0.0676 0.12497,-0.0428 0.80437,0.39134 0.17728,0.11328 0.4698,0.26022 0.51749,0.26022 0.0425,0 0.0333,-0.11075 -0.0541,-0.65255 -0.0281,-0.17349 -0.0806,-0.4985 -0.11632,-0.72156 -0.0357,-0.22306 -0.0886,-0.54706 -0.11729,-0.72056 -0.10486,-0.63283 -0.10378,-0.71159 0.0128,-0.82111 0.0744,-0.0699 0.20802,-0.11495 0.44357,-0.15082 0.18521,-0.0282 0.3791,-0.0588 0.43076,-0.0681 0.11497,-0.0207 0.51357,-0.51826 0.51357,-0.64072 0,-0.0572 -0.11458,-0.17495 -0.32626,-0.33318 -0.53829,-0.40232 -0.60707,-0.43463 -0.95716,-0.44752 -0.44571,-0.0164 -0.50432,-0.0441 -0.54116,-0.26221 -0.017,-0.10054 -0.0462,-0.19281 -0.066,-0.20503 -0.0197,-0.0121 -0.0499,-0.11854 -0.067,-0.23657 -0.0171,-0.11803 -0.0593,-0.30643 -0.0927,-0.41795 -0.0334,-0.11153 -0.0935,-0.32445 -0.13405,-0.47316 -0.0405,-0.1487 -0.10229,-0.37091 -0.13702,-0.49482 -0.0346,-0.12393 -0.0746,-0.27615 -0.0887,-0.33813 -0.0253,-0.11121 -0.0841,-0.32721 -0.21983,-0.81124 -0.0382,-0.13631 -0.11194,-0.39965 -0.16362,-0.58553 -0.20223,-0.72732 -0.23401,-0.84104 -0.29079,-1.03697 -0.15081,-0.52037 -0.26561,-0.89166 -0.32036,-1.03602 -0.0328,-0.0868 -0.0718,-0.22124 -0.0868,-0.29867 -0.022,-0.11355 -0.13632,-0.26354 -0.20996,-0.30163 z m 4.65954,0.36374 c -0.015,-2.4e-4 -0.0286,0.006 -0.0424,0.0177 -0.0731,0.0608 -0.0574,0.21108 0.0612,0.6013 0.0376,0.12393 0.0962,0.31986 0.1311,0.43471 0.0349,0.11485 0.0641,0.24077 0.0641,0.27994 0,0.0392 0.0268,0.15797 0.0601,0.26419 0.0333,0.10619 0.10532,0.365 0.15968,0.57564 0.0543,0.21068 0.12701,0.48528 0.16068,0.6092 0.0596,0.21931 0.11715,0.44186 0.20997,0.81026 0.0249,0.0992 0.0732,0.2822 0.10744,0.40613 0.0342,0.1239 0.0966,0.3574 0.138,0.51849 0.22779,0.88549 0.38326,1.40955 0.43667,1.47564 0.025,0.031 0.0836,0.0562 0.13013,0.0562 0.10079,0 0.11316,0.15458 0.0286,0.34697 -0.0788,0.17911 -0.11019,0.19245 -0.46526,0.19321 -0.26912,4.9e-4 -0.34177,0.0184 -0.47316,0.11532 -0.0854,0.063 -0.15334,0.13396 -0.1508,0.15773 0.002,0.0237 0.008,0.0618 0.0117,0.0848 0.003,0.0229 0.22445,0.14848 0.49087,0.27993 0.41862,0.20652 0.51682,0.23798 0.71959,0.22967 l 0.23461,-0.01 0.0276,0.16856 c 0.0156,0.0926 0.046,0.22925 0.0671,0.30361 0.0209,0.0744 0.0507,0.26671 0.0661,0.42781 0.0154,0.16109 0.0563,0.4347 0.0917,0.60819 0.0351,0.17348 0.0853,0.46766 0.11138,0.65353 0.132,0.93949 0.2254,1.4188 0.30066,1.54366 0.0309,0.0512 0.0436,0.0452 0.28488,-0.1242 0.1234,-0.0868 0.23576,-0.15773 0.24938,-0.15773 0.0254,0 0.29655,-0.18308 0.33714,-0.22769 0.0698,-0.0767 0.61793,-0.40225 0.67522,-0.4012 0.0726,0.002 0.53556,0.29258 0.72056,0.45344 0.1846,0.16054 0.40547,0.25042 0.44752,0.18237 0.0394,-0.064 0.0126,-0.27308 -0.0443,-0.346 -0.0202,-0.0257 -0.0568,-0.12757 -0.0809,-0.22574 -0.0241,-0.0982 -0.0972,-0.32035 -0.16266,-0.49384 -0.0656,-0.17349 -0.13684,-0.37612 -0.15869,-0.45047 -0.0859,-0.29209 -0.32947,-1.00009 -0.39429,-1.14641 -0.1148,-0.25921 -0.038,-0.30935 0.59143,-0.38838 0.19218,-0.0241 0.24903,-0.0589 0.46132,-0.27996 0.27712,-0.2884 0.30933,-0.42526 0.11829,-0.50173 -0.0682,-0.0273 -0.18391,-0.0899 -0.25827,-0.13898 -0.0744,-0.0492 -0.18643,-0.10987 -0.24839,-0.13505 -0.0619,-0.0252 -0.15062,-0.0677 -0.19714,-0.0947 -0.12915,-0.0748 -0.55362,-0.17642 -0.73734,-0.17642 -0.15458,0 -0.3726,-0.13673 -0.3726,-0.23363 0,-0.0393 -0.43944,-0.98215 -0.58453,-1.25385 -0.36448,-0.68243 -0.4574,-0.85805 -0.54611,-1.036 -0.0556,-0.11153 -0.25466,-0.46226 -0.44258,-0.7797 -0.43424,-0.73348 -0.40984,-0.69381 -0.5668,-0.93252 -0.0734,-0.11152 -0.15412,-0.23829 -0.1794,-0.28091 -0.13441,-0.22664 -0.97755,-1.3643 -1.07739,-1.45398 -0.0277,-0.0247 -0.14874,-0.16221 -0.26912,-0.30557 -0.13624,-0.16227 -0.19716,-0.22302 -0.24248,-0.22375 z m -14.0703,0.19122 c -0.0247,0 -0.0452,0.0229 -0.0452,0.0503 0,0.0274 -0.0526,0.0899 -0.11631,0.13997 -0.15193,0.11951 -1.33128,1.62442 -1.68659,2.15184 -0.0371,0.0552 -0.16883,0.23886 -0.29276,0.40809 -0.12391,0.16925 -0.31628,0.45543 -0.4278,0.63581 -0.11153,0.18036 -0.24883,0.39537 -0.3046,0.47808 -0.0557,0.0827 -0.10153,0.1585 -0.10153,0.16855 0,0.0101 -0.0577,0.10535 -0.12912,0.21194 -0.0714,0.10657 -0.1841,0.29502 -0.25038,0.41893 -0.0663,0.12392 -0.13915,0.25657 -0.16166,0.29376 -0.0225,0.0371 -0.0928,0.17911 -0.15672,0.31542 -0.0641,0.1363 -0.13223,0.27825 -0.15181,0.31543 -0.12165,0.23099 -0.1863,0.37275 -0.1863,0.41104 0,0.0241 -0.0378,0.12966 -0.0838,0.23362 -0.0459,0.10398 -0.0957,0.22463 -0.11137,0.26912 -0.0281,0.0796 -0.28202,0.21192 -0.40612,0.21192 -0.0635,0 -0.39825,0.14451 -0.52541,0.22673 -0.0371,0.024 -0.11843,0.0647 -0.18038,0.0897 -0.0619,0.0251 -0.17306,0.0857 -0.24742,0.13406 -0.0744,0.0484 -0.20136,0.11806 -0.28192,0.15475 -0.0806,0.0367 -0.14687,0.0797 -0.14687,0.0956 0,0.0505 0.18884,0.30645 0.35485,0.48203 0.15579,0.16474 0.16788,0.16953 0.48302,0.16953 0.20372,0 0.34028,0.0207 0.36965,0.056 0.0462,0.056 -0.12278,0.64426 -0.25137,0.87535 -0.0301,0.054 -0.0541,0.13688 -0.0541,0.18334 0,0.0464 -0.0296,0.1234 -0.066,0.17151 -0.0363,0.048 -0.0671,0.11542 -0.0681,0.14886 -8e-4,0.0333 -0.0309,0.12495 -0.0671,0.20304 -0.0753,0.16291 -0.18858,0.47511 -0.25629,0.7048 -0.0255,0.0868 -0.0653,0.17656 -0.0878,0.20011 -0.0225,0.0235 -0.0412,0.075 -0.0413,0.11336 -1.6e-4,0.0384 -0.0299,0.12675 -0.0661,0.19615 -0.0863,0.16535 -0.15654,0.42403 -0.1242,0.4564 0.014,0.014 0.0545,0.0256 0.0897,0.0256 0.0536,0 0.8044,-0.4679 1.23708,-0.77085 0.19229,-0.13464 0.35847,-0.10608 0.7669,0.13209 0.20524,0.11968 0.44151,0.24457 0.52539,0.27799 0.1369,0.0544 0.15834,0.0525 0.21193,-0.0207 0.0328,-0.0448 0.0716,-0.17542 0.0858,-0.2898 0.0142,-0.11438 0.0466,-0.30881 0.072,-0.43274 0.0253,-0.12393 0.0648,-0.35739 0.0878,-0.51848 0.023,-0.16111 0.062,-0.34858 0.0858,-0.41698 0.0238,-0.0684 0.0568,-0.25146 0.073,-0.40611 0.0161,-0.15465 0.057,-0.36793 0.0917,-0.47413 0.0344,-0.10621 0.0632,-0.27218 0.0632,-0.36867 0,-0.26043 0.0828,-0.31639 0.46527,-0.31741 l 0.32331,-7.9e-4 0.42781,-0.38936 c 0.23545,-0.21431 0.45609,-0.44095 0.48991,-0.50272 0.0678,-0.12362 0.0693,-0.12119 -0.32233,-0.39726 -0.15639,-0.11026 -0.20461,-0.12006 -0.57271,-0.11434 -0.22101,0.003 -0.41198,-0.0106 -0.42486,-0.0315 -0.0128,-0.0208 -0.004,-0.14747 0.0187,-0.28093 0.0229,-0.13347 0.064,-0.38444 0.0917,-0.55793 0.10051,-0.62847 0.13701,-0.81344 0.18138,-0.9246 0.0248,-0.0624 0.0632,-0.21448 0.0848,-0.33811 0.0216,-0.12364 0.0597,-0.28545 0.0848,-0.3598 0.0251,-0.0744 0.0911,-0.28727 0.14687,-0.47314 0.0556,-0.18589 0.12845,-0.40195 0.16165,-0.48005 0.0332,-0.0781 0.0611,-0.16865 0.0622,-0.20208 8e-4,-0.0333 0.0316,-0.10074 0.0681,-0.14884 0.0363,-0.0481 0.0661,-0.11593 0.0661,-0.15081 0,-0.11922 0.74556,-1.67234 0.95222,-1.9833 0.0709,-0.10658 0.12911,-0.21304 0.12911,-0.23657 0,-0.0235 0.0205,-0.0424 0.0452,-0.0424 0.0247,0 0.0443,-0.0411 0.0443,-0.0907 0,-0.0496 -0.0196,-0.0897 -0.0443,-0.0897 z m 19.07289,0.68705 c -0.0125,0.002 -0.0233,0.009 -0.0374,0.0226 -0.0325,0.0324 -0.0309,0.0416 0.0246,0.0996 0.0334,0.0349 0.0612,0.0754 0.0612,0.0897 0,0.0143 0.0285,0.0589 0.0632,0.0996 0.0344,0.0406 0.0775,0.0962 0.0956,0.12221 0.0968,0.13937 0.21033,0.28425 0.37064,0.47315 0.0432,0.0512 0.0789,0.10223 0.0789,0.11335 0,0.0179 0.052,0.0879 0.22967,0.30854 0.0285,0.0352 0.0728,0.0976 0.0976,0.13898 0.0247,0.0413 0.0922,0.1363 0.14985,0.20997 0.0575,0.0737 0.11665,0.15795 0.13208,0.18728 0.0153,0.0294 0.0572,0.0865 0.0927,0.12718 0.0352,0.0406 0.0642,0.0887 0.0642,0.10644 0,0.0177 0.0295,0.0648 0.0651,0.10549 0.0354,0.0406 0.0813,0.1072 0.10154,0.14685 0.0202,0.0397 0.0501,0.0799 0.0671,0.0897 0.017,0.01 0.0551,0.062 0.0848,0.11531 0.14477,0.26249 0.24186,0.42671 0.34896,0.59047 0.0386,0.059 0.077,0.1334 0.0848,0.16461 0.008,0.0312 0.0396,0.0869 0.0711,0.12421 0.0313,0.0372 0.0726,0.11813 0.0907,0.17941 0.0182,0.0612 0.0471,0.12416 0.0651,0.13897 0.0178,0.0148 0.0547,0.0938 0.0818,0.17645 0.0271,0.0827 0.0628,0.16574 0.0789,0.18433 0.0161,0.0186 0.0507,0.11438 0.0769,0.21195 0.0261,0.0976 0.0616,0.20487 0.0789,0.23854 0.0174,0.0336 0.0411,0.17963 0.0521,0.32429 0.0168,0.21869 0.0277,0.2706 0.0671,0.31248 0.0793,0.0847 0.0917,0.14925 0.071,0.37754 -0.0172,0.18907 -0.0264,0.22031 -0.0779,0.26515 -0.0493,0.0429 -0.0843,0.0505 -0.22868,0.0505 -0.15719,0 -0.17687,0.006 -0.25235,0.0691 -0.15494,0.13044 -0.29502,0.27963 -0.29474,0.31345 5.1e-4,0.0624 0.1708,0.22129 0.26418,0.24642 0.0488,0.0131 0.10702,0.0445 0.12913,0.0691 0.0221,0.0243 0.0923,0.0592 0.15673,0.0779 0.0645,0.0187 0.13566,0.0543 0.15772,0.0789 0.022,0.0243 0.0687,0.0505 0.1035,0.058 0.0349,0.008 0.10887,0.0439 0.1646,0.0809 0.0556,0.0368 0.17561,0.0873 0.26616,0.11236 0.0906,0.025 0.17586,0.0559 0.19025,0.0681 0.0143,0.0119 0.0386,0.0697 0.0531,0.12815 0.0146,0.0586 0.046,0.13941 0.07,0.18039 0.0239,0.0409 0.0548,0.12223 0.0692,0.18039 0.014,0.0582 0.0534,0.15687 0.0877,0.21883 0.0341,0.062 0.0737,0.16736 0.0877,0.2346 0.014,0.0673 0.0447,0.15314 0.0681,0.19123 0.0233,0.038 0.0543,0.11476 0.0691,0.17054 0.0145,0.0557 0.0454,0.13495 0.0691,0.17545 0.0235,0.0405 0.0583,0.13669 0.0779,0.21391 0.0195,0.0772 0.0555,0.16824 0.08,0.20207 0.0243,0.0337 0.0605,0.12538 0.0799,0.20306 0.0193,0.0777 0.0536,0.16761 0.0769,0.20011 0.0231,0.0325 0.0574,0.11737 0.076,0.18828 0.0186,0.071 0.0485,0.14612 0.0681,0.16757 0.0194,0.0214 0.0524,0.10935 0.073,0.19517 0.0205,0.0858 0.0607,0.18654 0.0887,0.22475 0.0282,0.0382 0.0585,0.10917 0.0671,0.15771 0.0144,0.0823 0.16947,0.43663 0.21883,0.49976 0.0269,0.0344 0.0133,0.0361 0.11336,-0.0147 0.0463,-0.0236 0.14741,-0.10497 0.22376,-0.18039 0.0764,-0.0755 0.15684,-0.14268 0.1794,-0.14982 0.0225,-0.007 0.056,-0.0425 0.075,-0.0789 0.0188,-0.0362 0.0443,-0.0661 0.056,-0.0661 0.0233,0 0.12329,-0.0817 0.23657,-0.19418 0.11844,-0.1176 0.20186,-0.15123 0.29966,-0.11928 0.0456,0.0149 0.10455,0.0488 0.1311,0.075 0.0266,0.026 0.11586,0.0931 0.19815,0.14884 0.0823,0.0557 0.19117,0.1342 0.24149,0.17449 0.0992,0.0794 0.1468,0.0889 0.20898,0.0433 0.0382,-0.0281 0.0377,-0.0365 -0.009,-0.19024 -0.0269,-0.0885 -0.0633,-0.17271 -0.0808,-0.18729 -0.0176,-0.0145 -0.0459,-0.0734 -0.0632,-0.1311 -0.0172,-0.0578 -0.0579,-0.14339 -0.0897,-0.19024 -0.0317,-0.0468 -0.0726,-0.13926 -0.0917,-0.20504 -0.0191,-0.0658 -0.0509,-0.13211 -0.07,-0.14785 -0.0189,-0.0157 -0.0454,-0.073 -0.0591,-0.12717 -0.0136,-0.0541 -0.054,-0.13551 -0.0897,-0.18037 -0.0356,-0.0448 -0.0652,-0.10245 -0.0652,-0.12815 0,-0.0507 -0.18869,-0.45305 -0.24151,-0.51455 -0.0178,-0.0208 -0.0422,-0.0815 -0.0542,-0.13505 -0.0118,-0.0536 -0.046,-0.13308 -0.076,-0.17645 -0.0298,-0.0433 -0.0694,-0.12128 -0.0878,-0.1735 -0.0184,-0.0521 -0.0563,-0.12539 -0.0838,-0.16264 -0.032,-0.0435 -0.0536,-0.11159 -0.06,-0.19023 -0.0117,-0.14181 0.002,-0.15642 0.18629,-0.18236 0.062,-0.009 0.15336,-0.0392 0.20308,-0.0681 0.0498,-0.0289 0.13953,-0.0601 0.19911,-0.0691 0.12335,-0.0185 0.22094,-0.0892 0.26319,-0.19125 0.0281,-0.0677 0.0262,-0.0715 -0.0927,-0.1794 -0.0668,-0.0607 -0.15029,-0.12295 -0.18531,-0.13799 -0.0349,-0.015 -0.0923,-0.0536 -0.12717,-0.0858 -0.0348,-0.0321 -0.1055,-0.089 -0.15673,-0.12618 -0.0512,-0.0371 -0.13479,-0.10077 -0.1863,-0.14195 -0.0514,-0.0412 -0.13434,-0.0972 -0.18335,-0.12419 -0.049,-0.027 -0.10984,-0.0617 -0.13602,-0.0769 -0.0284,-0.0166 -0.13222,-0.0274 -0.2563,-0.0277 -0.17809,-2.8e-4 -0.21483,-0.008 -0.25333,-0.0463 -0.0248,-0.0247 -0.0459,-0.0574 -0.0463,-0.073 -3.5e-4,-0.0155 -0.0302,-0.0677 -0.067,-0.11632 -0.0368,-0.0486 -0.0671,-0.10088 -0.0671,-0.11632 0,-0.0154 -0.0254,-0.058 -0.0562,-0.0947 -0.0307,-0.0364 -0.0755,-0.11255 -0.0996,-0.16855 -0.0239,-0.0559 -0.0542,-0.10885 -0.0681,-0.1173 -0.0136,-0.009 -0.0547,-0.0739 -0.0907,-0.14491 -0.0358,-0.0712 -0.0806,-0.14197 -0.0996,-0.15771 -0.0189,-0.0158 -0.046,-0.063 -0.0602,-0.10547 -0.014,-0.0424 -0.0442,-0.0878 -0.0681,-0.10055 -0.0237,-0.0126 -0.0433,-0.0358 -0.0433,-0.0521 0,-0.0163 -0.0336,-0.0747 -0.0739,-0.12914 -0.0736,-0.0995 -0.12431,-0.17575 -0.20799,-0.3105 -0.0247,-0.0399 -0.0827,-0.12374 -0.12914,-0.1863 -0.0464,-0.0627 -0.0848,-0.12728 -0.0848,-0.14392 0,-0.0166 -0.0193,-0.0439 -0.0424,-0.0601 -0.0229,-0.0162 -0.0622,-0.071 -0.0878,-0.12124 -0.0256,-0.0503 -0.0635,-0.1053 -0.0838,-0.12224 -0.0204,-0.0169 -0.057,-0.0688 -0.0809,-0.11531 -0.0237,-0.0465 -0.057,-0.0926 -0.074,-0.10252 -0.017,-0.01 -0.048,-0.0486 -0.0691,-0.0858 -0.0208,-0.0371 -0.0801,-0.1262 -0.13208,-0.19715 -0.0521,-0.0711 -0.14042,-0.19112 -0.19618,-0.26712 -0.0556,-0.076 -0.13966,-0.18317 -0.18629,-0.23857 -0.0465,-0.0553 -0.10055,-0.13035 -0.11928,-0.16657 -0.0187,-0.0361 -0.0432,-0.0661 -0.0551,-0.0661 -0.0118,0 -0.0468,-0.0383 -0.0769,-0.0848 -0.0301,-0.0464 -0.10366,-0.13823 -0.16362,-0.20403 -0.0599,-0.0658 -0.14956,-0.17033 -0.19911,-0.23264 -0.46048,-0.57873 -1.48848,-1.61914 -1.78319,-1.80487 -0.0542,-0.034 -0.0976,-0.0709 -0.0976,-0.0818 0,-0.0109 -0.0411,-0.0362 -0.0907,-0.0562 -0.0496,-0.0198 -0.0897,-0.046 -0.0897,-0.0581 0,-0.012 -0.022,-0.0332 -0.0483,-0.0472 -0.0189,-0.0101 -0.0327,-0.0143 -0.0452,-0.0128 z m -23.77677,0.62003 c -0.20079,0 -1.5087,1.14631 -2.12328,1.86107 -0.12392,0.14411 -0.26354,0.29634 -0.30952,0.33809 -0.11898,0.1081 -1.23453,1.55582 -1.44804,1.8788 -0.0983,0.1487 -0.18925,0.28037 -0.20207,0.29276 -0.0628,0.0607 -0.62187,0.94077 -0.87632,1.38003 -0.21628,0.37336 -0.35788,0.55792 -0.42978,0.55792 -0.0221,0 -0.0669,0.0249 -0.0996,0.0561 -0.0327,0.0312 -0.11054,0.0824 -0.1725,0.11337 -0.31607,0.158 -0.8801,0.54489 -0.89307,0.61213 -0.008,0.0421 0.04,0.22068 0.10743,0.39726 0.12234,0.32006 0.12305,0.3218 0.0452,0.551 -0.0428,0.12645 -0.096,0.27082 -0.11729,0.32038 -0.0635,0.14721 -0.45651,1.15679 -0.61412,1.57718 -0.037,0.0991 -0.0959,0.23736 -0.13109,0.30753 -0.0744,0.1482 -0.0835,0.28355 -0.0207,0.32233 0.0396,0.0244 0.39672,-0.13883 0.45246,-0.207 0.0124,-0.0152 0.0707,-0.0435 0.13012,-0.0621 0.0596,-0.0186 0.21177,-0.095 0.33811,-0.16956 0.28838,-0.17014 0.40244,-0.17016 0.58257,-7.9e-4 0.0788,0.074 0.2511,0.21872 0.38344,0.32135 0.13235,0.10264 0.25888,0.1863 0.28094,0.1863 0.0443,0 0.22177,-0.3267 0.22177,-0.40809 0,-0.0282 0.0277,-0.1151 0.0612,-0.19321 0.13835,-0.32277 0.25477,-0.6432 0.25628,-0.70578 8e-4,-0.0366 0.0306,-0.10665 0.0671,-0.15476 0.0363,-0.048 0.0661,-0.11857 0.0661,-0.15672 0,-0.0645 0.11235,-0.37528 0.2553,-0.70875 0.0334,-0.0781 0.0602,-0.16647 0.0602,-0.19616 0,-0.0296 0.0282,-0.11807 0.0621,-0.19615 0.0337,-0.0781 0.1107,-0.27239 0.17053,-0.43275 0.0979,-0.26247 0.12677,-0.29827 0.28783,-0.3588 0.0984,-0.0368 0.20348,-0.0886 0.23362,-0.11434 0.13778,-0.11765 0.67133,-0.60189 0.8073,-0.7324 0.20074,-0.19262 0.19601,-0.32315 -0.0217,-0.55201 -0.13784,-0.14489 -0.20519,-0.18138 -0.33022,-0.18138 -0.0865,0 -0.16841,-0.0107 -0.18139,-0.0236 -0.0648,-0.0649 0.17434,-0.93965 0.40022,-1.46382 0.20671,-0.47966 0.82028,-1.57033 0.97587,-1.73487 0.0468,-0.0496 0.11324,-0.15602 0.14787,-0.23657 0.0344,-0.0806 0.0789,-0.14688 0.0976,-0.14688 0.0187,0 0.0985,-0.0996 0.17841,-0.22179 0.0801,-0.12218 0.31031,-0.42098 0.51161,-0.66438 0.20128,-0.2434 0.44023,-0.53227 0.53032,-0.64171 0.0901,-0.10942 0.19912,-0.23644 0.24249,-0.28191 0.095,-0.0996 0.0984,-0.12716 0.0168,-0.12716 z m 28.47277,0.75113 c -0.013,-0.005 -0.0238,0.003 -0.0413,0.0207 -0.044,0.0435 -0.0277,0.0815 0.0483,0.1104 0.0305,0.0115 0.0541,0.0383 0.0541,0.0621 0,0.0231 0.0213,0.0622 0.0472,0.0858 0.026,0.0235 0.0609,0.0676 0.0769,0.0986 0.0161,0.0309 0.1121,0.13746 0.21389,0.23658 0.10178,0.0991 0.20145,0.19992 0.22179,0.22376 0.0203,0.0238 0.0636,0.0697 0.0956,0.10154 0.0319,0.0319 0.079,0.088 0.10449,0.12518 0.0255,0.0371 0.10123,0.12535 0.16759,0.19518 0.0663,0.0699 0.16038,0.17345 0.20993,0.23065 0.0496,0.0571 0.118,0.13088 0.15183,0.16364 0.0337,0.0327 0.0676,0.0763 0.074,0.0966 0.006,0.0203 0.0416,0.0549 0.0789,0.0769 0.0371,0.0219 0.0681,0.0544 0.0681,0.072 0,0.0174 0.0271,0.061 0.0611,0.0966 0.11195,0.11721 0.29548,0.34885 0.40611,0.51358 0.0281,0.0417 0.0612,0.076 0.073,0.076 0.0118,0 0.0375,0.0309 0.0571,0.0692 0.0404,0.0783 0.22711,0.32847 0.26022,0.34893 0.0119,0.007 0.0371,0.0512 0.056,0.0966 0.0189,0.0454 0.0531,0.10219 0.076,0.12716 0.0228,0.0249 0.0632,0.0893 0.0897,0.14194 0.0265,0.0526 0.0562,0.0956 0.0671,0.0956 0.0109,0 0.0371,0.0429 0.0583,0.0956 0.0209,0.0526 0.0566,0.116 0.0799,0.14094 0.0232,0.0249 0.0579,0.0827 0.0769,0.12817 0.019,0.0455 0.0596,0.11903 0.0897,0.1636 0.0301,0.0445 0.0624,0.11393 0.071,0.15379 0.009,0.0398 0.0442,0.12739 0.08,0.1942 0.0355,0.0668 0.0651,0.14805 0.0652,0.18039 2.7e-4,0.12631 0.0465,0.2252 0.14688,0.31344 0.12234,0.10769 0.13081,0.1835 0.0384,0.3529 -0.0574,0.10539 -0.068,0.11373 -0.15871,0.12026 -0.0569,0.004 -0.10132,0.0199 -0.10843,0.0385 -0.0211,0.055 0.0384,0.19126 0.10055,0.22967 0.0328,0.0203 0.0964,0.0731 0.14096,0.11731 0.0445,0.0442 0.11552,0.10853 0.15771,0.14294 0.0421,0.0343 0.1525,0.12639 0.24545,0.20403 0.0929,0.0776 0.19474,0.15751 0.22573,0.17843 0.0732,0.0493 0.16763,0.12603 0.24347,0.19714 0.0332,0.0311 0.0877,0.074 0.12026,0.0946 0.0325,0.0207 0.0658,0.065 0.0739,0.0976 0.008,0.0326 0.0403,0.0981 0.072,0.14588 0.0316,0.0478 0.0679,0.13092 0.0799,0.18434 0.012,0.0533 0.0422,0.11855 0.0671,0.1449 0.0247,0.0263 0.0589,0.10085 0.076,0.16559 0.0171,0.0648 0.0467,0.13544 0.0661,0.15674 0.0193,0.0213 0.0547,0.0979 0.0799,0.17053 0.0249,0.0727 0.0601,0.14813 0.0769,0.16758 0.0169,0.0194 0.0483,0.0899 0.07,0.15672 0.0217,0.0668 0.0633,0.15615 0.0917,0.19813 0.0285,0.042 0.0583,0.10899 0.0671,0.14886 0.009,0.0398 0.0352,0.10041 0.0591,0.13406 0.0237,0.0336 0.0573,0.10911 0.075,0.16856 0.0177,0.0595 0.058,0.14336 0.0897,0.1863 0.0316,0.0429 0.0644,0.11708 0.072,0.16461 0.007,0.0476 0.0388,0.12387 0.0699,0.16955 0.0311,0.0456 0.0693,0.13081 0.0848,0.18925 0.0155,0.0584 0.0496,0.13323 0.076,0.16659 0.0262,0.0333 0.0639,0.1141 0.0828,0.17941 0.0189,0.0654 0.0529,0.1433 0.076,0.1725 0.0229,0.0293 0.0542,0.0985 0.0691,0.15378 0.0148,0.0553 0.0367,0.11828 0.0483,0.13997 0.0115,0.0217 0.0376,0.0394 0.0592,0.0394 0.0709,0 0.19006,-0.0804 0.23857,-0.16068 0.0705,-0.11656 0.20078,-0.29078 0.21782,-0.29078 0.008,0 0.0453,-0.0492 0.0829,-0.10942 0.0872,-0.14018 0.16317,-0.1608 0.27008,-0.0739 0.17641,0.14333 0.2259,0.17868 0.31446,0.22769 0.0516,0.0286 0.11053,0.0459 0.13012,0.0385 0.0548,-0.0211 0.0449,-0.15712 -0.0168,-0.23264 -0.0287,-0.0349 -0.0695,-0.11023 -0.0907,-0.16758 -0.0213,-0.0573 -0.0589,-0.12229 -0.0828,-0.1439 -0.0238,-0.0216 -0.0554,-0.0763 -0.07,-0.12126 -0.0145,-0.0449 -0.0553,-0.11504 -0.0907,-0.15572 -0.0353,-0.0406 -0.0642,-0.0929 -0.0642,-0.11634 0,-0.0233 -0.0254,-0.0729 -0.056,-0.1094 -0.0308,-0.0365 -0.0756,-0.11159 -0.0996,-0.16759 -0.024,-0.056 -0.055,-0.10958 -0.0691,-0.11829 -0.014,-0.009 -0.0517,-0.0682 -0.0828,-0.13207 -0.0843,-0.17317 -0.16094,-0.31145 -0.21095,-0.37952 -0.0245,-0.0333 -0.0708,-0.1146 -0.10253,-0.18038 -0.052,-0.10756 -0.11429,-0.2223 -0.24445,-0.4495 -0.0238,-0.0414 -0.0506,-0.1134 -0.0592,-0.15969 -0.0172,-0.0924 -0.0471,-0.0572 0.35488,-0.41794 0.0648,-0.0582 0.11811,-0.11691 0.11827,-0.13011 1.6e-4,-0.0132 -0.0325,-0.0557 -0.073,-0.0947 -0.0402,-0.0388 -0.0895,-0.0892 -0.10943,-0.11138 -0.02,-0.0222 -0.0736,-0.0704 -0.11927,-0.10745 -0.0456,-0.0371 -0.10788,-0.0932 -0.13801,-0.12419 -0.0719,-0.074 -0.0614,-0.0649 -0.27402,-0.2484 -0.1831,-0.15805 -0.35301,-0.24786 -0.52934,-0.28095 -0.0945,-0.0177 -0.22525,-0.13627 -0.2898,-0.26219 -0.023,-0.0449 -0.0577,-0.0873 -0.0769,-0.0946 -0.0191,-0.007 -0.0344,-0.0257 -0.0344,-0.0404 0,-0.0238 -0.0356,-0.0761 -0.22081,-0.32431 -0.0277,-0.0371 -0.0756,-0.10251 -0.10645,-0.14587 -0.0309,-0.0433 -0.0916,-0.12463 -0.13505,-0.18039 -0.0434,-0.0557 -0.1079,-0.14423 -0.14293,-0.19617 -0.0349,-0.0521 -0.0843,-0.11729 -0.11041,-0.14588 -0.026,-0.0286 -0.0881,-0.10266 -0.13799,-0.16462 -0.0499,-0.062 -0.11154,-0.13858 -0.13702,-0.16955 -0.0254,-0.0309 -0.0691,-0.0875 -0.0966,-0.12617 -0.12307,-0.17245 -0.24507,-0.3219 -0.3519,-0.43076 -0.0636,-0.0648 -0.11533,-0.12606 -0.11533,-0.13605 0,-0.01 -0.0608,-0.0828 -0.13504,-0.16165 -0.0744,-0.0789 -0.13505,-0.15076 -0.13505,-0.16067 0,-0.0541 -1.31467,-1.42511 -1.7477,-1.82262 -0.25334,-0.23257 -0.5321,-0.47394 -0.54708,-0.47413 -0.008,-1.1e-4 -0.0755,-0.0569 -0.14982,-0.12618 -0.0744,-0.0693 -0.17134,-0.14827 -0.2149,-0.17645 -0.0435,-0.0282 -0.0926,-0.0685 -0.1094,-0.0887 -0.0169,-0.0202 -0.0479,-0.0365 -0.0681,-0.0364 -0.0202,1.1e-4 -0.0633,-0.0325 -0.0966,-0.073 -0.0283,-0.0341 -0.044,-0.0525 -0.0572,-0.0571 z m -33.73165,1.6373 c -0.0638,0 -0.28697,0.20197 -0.74325,0.67522 -0.36436,0.37792 -0.41484,0.4347 -0.78661,0.87928 -0.10362,0.12391 -0.2316,0.27615 -0.28488,0.33809 -0.15415,0.17932 -0.97224,1.24194 -1.11091,1.44311 -0.0371,0.0539 -0.17349,0.24065 -0.30361,0.41597 -0.13011,0.17536 -0.23656,0.33735 -0.23656,0.35883 0,0.0363 -0.0742,0.14348 -0.4357,0.63579 -0.081,0.11018 -0.31315,0.30788 -0.54017,0.45934 -0.72603,0.48438 -0.82705,0.56942 -0.82705,0.70086 0,0.13771 0.0616,0.20125 0.23758,0.24545 0.0684,0.0171 0.13398,0.0482 0.14686,0.0691 0.0128,0.0208 -0.0831,0.24094 -0.2139,0.48892 -0.31876,0.60418 -0.35501,0.66932 -0.49188,0.9049 -0.15032,0.25872 -0.48222,0.8745 -0.58849,1.09121 -0.0449,0.0918 -0.0818,0.20779 -0.0818,0.25825 0,0.0879 0.01,0.0864 0.23657,-0.0344 0.47421,-0.25288 0.49971,-0.25636 0.65553,-0.10054 0.076,0.0759 0.15984,0.138 0.18629,0.138 0.0412,0 0.2876,-0.4787 0.47611,-0.92363 0.0314,-0.0744 0.12979,-0.28727 0.21784,-0.47314 0.0881,-0.1859 0.20446,-0.43992 0.25926,-0.56385 0.44612,-1.00905 0.68577,-1.39829 0.94236,-1.5318 0.18078,-0.0941 1.03335,-0.95997 1.06359,-1.08039 0.0199,-0.0795 -0.0178,-0.18359 -0.13505,-0.37653 -0.0892,-0.14679 -0.16164,-0.31097 -0.16164,-0.36374 0,-0.10423 0.13624,-0.30957 0.69492,-1.04783 0.40945,-0.54105 1.12787,-1.51292 1.49438,-2.02074 0.13415,-0.18589 0.2745,-0.36983 0.31148,-0.40909 0.0788,-0.0835 0.0888,-0.17644 0.0187,-0.17644 z m 38.39909,0.34697 c -0.0366,0.0629 3.54084,4.53576 3.64227,4.75122 0.10516,0.15283 0.19122,0.29508 0.19122,0.31543 0,0.0203 0.1383,0.25907 0.30755,0.53033 0.42664,0.68377 1.00995,1.89154 1.24892,2.58654 0.11015,0.32037 0.22327,0.61861 0.25038,0.66242 0.0801,0.12941 0.14969,0.0933 0.3036,-0.15574 0.176,-0.28478 0.17228,-0.40481 -0.0197,-0.67226 -0.0811,-0.11287 -0.17592,-0.25244 -0.21095,-0.31053 -0.0349,-0.058 -0.18911,-0.31656 -0.34302,-0.57465 -0.15392,-0.25812 -0.37876,-0.60958 -0.49977,-0.7807 -0.19529,-0.27617 -0.21569,-0.34161 -0.17941,-0.58356 0.0358,-0.23975 0.0187,-0.29883 -0.14292,-0.48597 -0.10109,-0.11704 -0.25275,-0.29336 -0.33714,-0.39232 -0.0844,-0.099 -0.26164,-0.24045 -0.3933,-0.31446 -0.13165,-0.074 -0.22698,-0.16013 -0.23854,-0.18629 -0.0814,-0.18414 -3.4631,-4.58809 -3.57918,-4.38946 z m -17.87523,6.76605 -0.34599,0.20404 c -0.18996,0.11244 -0.45501,0.26153 -0.58945,0.33122 -0.13447,0.0698 -0.26834,0.17019 -0.29672,0.22277 -0.0399,0.0741 -0.10682,3.88307 -0.0721,4.09373 0.005,0.0263 0.72545,0.0482 1.6028,0.0482 1.38163,0 1.60055,-0.013 1.63334,-0.0986 0.0208,-0.0543 0.005,-0.40563 -0.0354,-0.7807 -0.22657,-2.11217 -0.26216,-2.47868 -0.26418,-2.74623 -7.9e-4,-0.16161 -0.0361,-0.33965 -0.0789,-0.39529 -0.0426,-0.0556 -0.4103,-0.27583 -0.81619,-0.4899 l -0.73733,-0.38937 z m -7.71037,0.16461 -0.40908,0.22476 c -0.22536,0.12383 -0.55319,0.30405 -0.72845,0.40021 -0.17525,0.0962 -0.34457,0.1983 -0.37557,0.22671 -0.0575,0.0529 -0.11532,0.54677 -0.2346,2.004 -0.0372,0.45564 -0.0904,1.10027 -0.11828,1.43323 -0.0279,0.33297 -0.0365,0.63096 -0.0187,0.66241 0.0188,0.033 0.38426,0.0369 0.86744,0.009 0.45915,-0.0267 1.20828,-0.0666 1.66392,-0.0887 l 0.82802,-0.0404 -0.0167,-1.8167 c -0.01,-0.99892 -0.0323,-1.90728 -0.0502,-2.01877 -0.0266,-0.16579 -0.10473,-0.24735 -0.42881,-0.4485 -0.21793,-0.13528 -0.52685,-0.31344 -0.68705,-0.39628 l -0.29177,-0.15081 z m 15.3823,0.14886 c -0.0434,8e-4 -0.19297,0.087 -0.33317,0.19024 -0.14019,0.10324 -0.31236,0.21367 -0.38245,0.24545 -0.28592,0.12959 -0.37166,0.30238 -0.32629,0.66044 0.0477,0.37616 0.21441,2.22041 0.27404,3.03308 0.0356,0.48793 0.0519,0.53592 0.19517,0.59045 0.0858,0.0326 0.70468,0.0834 1.37608,0.11337 0.67139,0.03 1.27838,0.0514 1.34847,0.0472 0.17387,-0.0101 0.19469,-0.25576 0.0661,-0.79055 -0.0565,-0.23488 -0.13374,-0.57095 -0.17053,-0.74619 -0.0368,-0.17526 -0.0901,-0.41849 -0.11927,-0.54117 -0.0292,-0.12268 -0.0961,-0.42395 -0.14884,-0.66931 -0.25722,-1.19652 -0.25292,-1.1838 -0.49681,-1.37706 -0.12772,-0.1012 -0.24921,-0.18434 -0.27009,-0.18434 -0.0209,0 -0.2399,-0.12912 -0.48597,-0.28685 -0.24607,-0.15772 -0.48293,-0.28603 -0.52638,-0.28487 z m -22.73288,0.44456 c -0.0722,0 -0.24464,0.0712 -0.38345,0.1587 -0.13881,0.0876 -0.26572,0.15969 -0.28192,0.15969 -0.0162,0 -0.21611,0.117 -0.44456,0.26023 -0.43922,0.2754 -0.4707,0.32562 -0.55399,0.88419 -0.0627,0.42074 -0.13665,0.85277 -0.27994,1.62744 -0.11375,0.61492 -0.20091,1.15534 -0.26417,1.64125 l -0.0394,0.30263 0.34895,0 c 0.19165,0 0.57445,-0.0273 0.85166,-0.0611 0.27721,-0.0336 0.78151,-0.0796 1.12077,-0.10152 0.33925,-0.0219 0.66502,-0.0746 0.72354,-0.11732 0.0875,-0.064 0.11626,-0.26426 0.16264,-1.12571 0.031,-0.57627 0.083,-1.43236 0.11533,-1.90246 0.0323,-0.47007 0.0398,-0.90581 0.0168,-0.96798 -0.0567,-0.15312 -0.92849,-0.75802 -1.0922,-0.75802 z m 29.51274,0.0927 c -0.0673,0.0213 -0.25698,0.18251 -0.4219,0.3588 -0.23371,0.24984 -0.29059,0.35175 -0.25826,0.46034 0.0229,0.0767 0.0684,0.31115 0.10055,0.52146 0.0524,0.3427 0.10184,0.61071 0.31937,1.72106 0.0342,0.17526 0.0882,0.49058 0.11927,0.70087 0.031,0.2103 0.0911,0.51589 0.13308,0.67917 0.0878,0.34108 0.14063,0.36682 0.76492,0.37654 0.22784,0.003 0.55716,0.0288 0.7324,0.0562 0.42886,0.0669 0.9399,0.0758 1.03109,0.0177 0.0789,-0.0502 0.08,-0.0437 -0.26616,-1.28934 -0.0925,-0.33296 -0.19267,-0.70533 -0.22179,-0.82801 -0.0291,-0.12268 -0.10095,-0.39493 -0.16067,-0.60524 -0.20356,-0.71669 -0.23376,-0.82907 -0.26813,-1.02023 -0.0487,-0.27043 -0.14996,-0.36628 -0.85562,-0.80238 -0.42689,-0.26386 -0.66463,-0.37349 -0.74815,-0.34698 z m -36.03335,0.64269 c -0.13213,0.0161 -0.28606,0.11771 -0.58059,0.31938 -0.22744,0.15573 -0.43104,0.28291 -0.45245,0.28291 -0.0213,0 -0.13201,0.0712 -0.24545,0.15771 -0.22569,0.17214 -0.23328,0.19621 -0.58157,1.81768 -0.0563,0.26289 -0.12947,0.59319 -0.16167,0.73339 -0.10342,0.45017 -0.33223,1.52346 -0.36372,1.70433 -0.0288,0.16488 -0.017,0.17545 0.20304,0.17545 0.12866,0 0.35381,-0.0259 0.50076,-0.058 0.14697,-0.0321 0.56842,-0.10692 0.93645,-0.1656 0.36802,-0.0588 0.7278,-0.12998 0.79943,-0.15771 0.13978,-0.054 0.18825,-0.24369 0.37949,-1.49832 0.0534,-0.3505 0.12411,-0.7809 0.15773,-0.95616 0.14751,-0.76953 0.27593,-1.73633 0.24248,-1.8236 -0.02,-0.0522 -0.19433,-0.20414 -0.38739,-0.3371 -0.20469,-0.14098 -0.31441,-0.21025 -0.44654,-0.1942 z m 41.66086,0.28488 c -0.0376,-5.1e-4 -0.13426,0.0681 -0.21389,0.15279 -0.14956,0.15914 -0.14995,0.25463 -0.004,0.76985 0.0298,0.10516 0.0848,0.30634 0.12124,0.44653 0.12972,0.49845 0.27674,1.02179 0.32333,1.14739 0.026,0.0702 0.0807,0.27031 0.12123,0.44554 0.0405,0.17528 0.11836,0.47656 0.1725,0.66932 0.0541,0.19278 0.13064,0.46504 0.16956,0.60525 0.0997,0.35898 0.14334,0.39981 0.51455,0.47217 0.1813,0.0352 0.45834,0.0908 0.61607,0.12321 0.38214,0.0787 0.74914,0.0874 0.79154,0.0187 0.0189,-0.0306 -0.0673,-0.33887 -0.19221,-0.68508 -0.125,-0.34619 -0.2805,-0.78802 -0.34502,-0.98079 -0.60031,-1.79384 -0.69075,-1.99949 -1.00247,-2.2938 -0.51643,-0.48758 -1.0007,-0.89014 -1.07249,-0.89109 z m -46.71173,0.82702 c -0.0451,0 -0.29257,0.23701 -0.55003,0.52639 -0.43875,0.49313 -0.48188,0.56791 -0.68115,1.1947 -0.11693,0.3678 -0.23594,0.72638 -0.26516,0.79647 -0.0293,0.0703 -0.12979,0.38539 -0.22376,0.70085 -0.19065,0.63998 -0.33398,1.08329 -0.41204,1.27454 -0.0866,0.21206 -0.13252,0.48065 -0.0927,0.54512 0.049,0.0792 0.0427,0.0795 0.6279,-0.0681 0.27608,-0.0697 0.55092,-0.12618 0.61117,-0.12618 0.18101,0 0.29764,-0.1972 0.414,-0.70085 0.0607,-0.26289 0.13498,-0.56416 0.16461,-0.66931 0.12264,-0.43514 0.30846,-1.14643 0.43766,-1.67278 0.055,-0.22444 0.20365,-0.80953 0.32234,-1.27258 0.0445,-0.1738 0.0274,-0.22989 -0.10942,-0.3667 -0.0888,-0.0888 -0.19831,-0.16166 -0.24347,-0.16166 z m 50.79661,0.25828 c -0.0879,0.009 -0.0237,0.17819 0.59932,1.90837 0.14514,0.40306 0.30815,0.86249 0.36176,1.02023 0.12378,0.36408 0.40148,1.13919 0.46822,1.30607 0.0281,0.0703 0.0783,0.19733 0.11139,0.28292 0.0424,0.1097 0.15331,0.18645 0.37458,0.25826 0.50902,0.16521 0.55136,0.12572 0.36769,-0.33909 -0.0854,-0.21595 -0.17979,-0.45038 -0.20997,-0.52048 -0.0302,-0.0702 -0.11948,-0.29931 -0.19813,-0.50961 -0.0787,-0.21031 -0.17801,-0.46854 -0.22082,-0.57369 -0.0428,-0.10515 -0.15565,-0.39241 -0.25134,-0.63778 -0.0957,-0.24534 -0.19737,-0.50261 -0.22574,-0.5727 -0.0284,-0.0703 -0.0985,-0.25377 -0.15574,-0.4071 -0.11082,-0.29654 -0.84104,-1.20537 -0.97489,-1.21344 -0.0176,-8e-4 -0.0336,-0.003 -0.0463,-0.002 z m -22.52985,7.29341 c -4.17122,0 -6.97646,0.0569 -9.68576,0.19517 -0.33298,0.017 -1.33694,0.0584 -2.23071,0.0917 -1.58264,0.059 -3.18363,0.1605 -3.50524,0.22278 -0.16549,0.032 -1.22016,0.12741 -2.48503,0.22473 -0.63666,0.049 -1.80632,0.1516 -3.24996,0.28489 -0.22782,0.021 -0.57214,0.0644 -0.76492,0.0956 -0.19278,0.0312 -0.56612,0.0898 -0.829,0.13014 -0.26287,0.0404 -0.70728,0.11187 -0.9877,0.1587 -0.2804,0.0468 -0.72484,0.1177 -0.98768,0.1577 -0.26289,0.04 -0.72133,0.11176 -1.01927,0.1597 -0.29791,0.048 -0.75636,0.11913 -1.01924,0.1587 -0.75395,0.11348 -1.21303,0.19742 -1.62546,0.29769 -0.21032,0.0512 -0.48258,0.118 -0.60526,0.14785 -0.12266,0.0297 -0.55307,0.12885 -0.95614,0.2208 -0.40307,0.092 -0.83348,0.19303 -0.95616,0.22377 -0.12268,0.0307 -0.5521,0.13372 -0.95517,0.2287 -0.40308,0.095 -0.76238,0.19333 -0.79746,0.21882 -0.0349,0.0254 -0.49349,0.27024 -1.01924,0.54412 -0.52575,0.27387 -1.01783,0.53136 -1.09416,0.57173 -0.2349,0.12431 -0.65847,0.71027 -0.65847,0.9118 0,0.10035 0.019,0.20138 0.0424,0.22474 0.077,0.077 0.0742,0.0788 1.35933,-0.51356 0.48787,-0.22489 0.91624,-0.4181 1.29129,-0.58159 0.25653,-0.11181 0.58709,-0.20461 1.16318,-0.32726 0.14017,-0.0298 0.44048,-0.0979 0.66831,-0.15082 0.22783,-0.0529 0.5151,-0.11551 0.63777,-0.13898 0.12268,-0.0235 0.32287,-0.0654 0.44555,-0.0937 1.47408,-0.34044 2.68172,-0.5602 4.17457,-0.76 0.24533,-0.0328 0.71879,-0.10614 1.05177,-0.16265 0.78793,-0.13375 1.24931,-0.20352 1.90443,-0.28685 0.29402,-0.0373 0.55842,-0.0826 0.58748,-0.10055 0.0562,-0.0346 0.92948,-0.1286 2.03259,-0.21882 1.05921,-0.0867 2.14527,-0.18449 2.83594,-0.2553 2.11309,-0.21667 3.02723,-0.27707 6.27712,-0.41401 0.50823,-0.0213 1.61228,-0.0686 2.45349,-0.10546 2.00065,-0.0878 10.91995,-0.16128 13.08948,-0.10747 4.66521,0.11575 6.67105,0.19311 7.3989,0.28389 0.43811,0.0546 1.0257,0.12439 1.30609,0.15478 1.3977,0.15143 1.71646,0.18748 2.45347,0.28289 0.43813,0.0568 1.0407,0.13071 1.33864,0.16364 0.95774,0.10586 1.54769,0.18334 1.87683,0.24741 0.44604,0.0869 0.92662,0.16826 2.07396,0.34994 0.54328,0.0861 1.0878,0.17254 1.21048,0.19222 0.12269,0.0197 0.398,0.0616 0.61214,0.0927 0.37072,0.0539 0.78057,0.16497 1.77825,0.484 0.24534,0.0785 0.66077,0.20813 0.92364,0.28784 1.02904,0.312 1.2226,0.38454 1.77035,0.66536 0.31183,0.15986 0.59995,0.29078 0.64073,0.29078 0.0425,0 0.074,-0.0977 0.074,-0.22869 0,-0.24377 -0.12492,-0.3991 -0.80436,-0.99657 -0.3266,-0.28722 -0.41441,-0.3222 -1.8719,-0.76394 -0.12267,-0.0371 -0.28082,-0.0891 -0.35092,-0.11434 -0.0702,-0.0253 -0.29932,-0.0962 -0.50961,-0.15772 -0.21032,-0.0615 -0.43953,-0.13261 -0.50963,-0.1587 -0.30385,-0.11324 -0.62371,-0.20426 -0.90686,-0.25727 -0.16726,-0.0312 -0.3897,-0.0732 -0.49485,-0.0937 -0.10514,-0.0204 -0.33437,-0.0652 -0.5096,-0.0986 -0.26347,-0.0503 -1.14553,-0.22069 -2.10356,-0.4071 -0.10516,-0.0204 -0.42046,-0.0835 -0.70086,-0.13997 -0.84308,-0.16987 -1.09597,-0.20678 -3.02716,-0.44062 -0.4732,-0.0572 -1.08979,-0.12858 -1.37018,-0.15871 -0.28039,-0.0301 -0.63874,-0.0725 -0.79647,-0.0937 -0.15772,-0.0212 -0.6452,-0.0806 -1.0833,-0.1321 -0.43813,-0.0515 -1.01169,-0.12188 -1.27456,-0.15574 -0.26288,-0.0337 -0.93653,-0.0801 -1.49734,-0.10252 -0.56078,-0.0224 -1.19238,-0.0487 -1.40267,-0.0592 -3.18634,-0.15962 -4.54215,-0.18927 -8.82624,-0.18927 z m -2.76692,3.64522 0.0858,0.13701 c 0.047,0.0754 0.10522,0.13702 0.12914,0.13702 0.22002,-10e-6 0.74878,0.82159 0.8911,1.38396 0.23652,0.93454 0.26257,1.21884 0.27009,3.0134 0.004,0.9989 0.0308,1.85172 0.0591,1.89553 l 0,7.9e-4 c 0.0398,0.0617 0.65565,0.0789 2.7216,0.0789 l 2.66935,0 0.0413,-0.21884 c 0.0225,-0.12039 0.0219,-0.25015 -0.002,-0.28882 -0.0656,-0.10603 -0.0409,-2.83198 0.0305,-3.37908 0.16158,-1.23619 0.39069,-1.90026 0.80831,-2.34306 0.13558,-0.14376 0.19282,-0.25077 0.15477,-0.28884 -0.0359,-0.0359 -1.63681,-0.0735 -3.95969,-0.0937 l -3.89955,-0.0344 z m -4.65462,0.0345 c -0.0625,0 -0.18302,0.0149 -0.26714,0.0324 -0.0841,0.0176 -0.71133,0.0464 -1.39479,0.0652 -1.72001,0.0466 -1.78574,0.0494 -2.05525,0.0867 -0.13144,0.0182 -0.42572,0.0344 -0.65355,0.0354 -0.55514,0.002 -2.37339,0.0656 -2.45349,0.0858 -0.0349,0.009 -0.32132,0.0281 -0.63677,0.0433 -0.57424,0.028 -0.76579,0.0636 -0.74126,0.13702 0.007,0.0216 0.0652,0.0595 0.12912,0.0838 0.18204,0.0694 0.67695,0.52431 0.77479,0.71269 0.025,0.0481 0.058,0.0878 0.073,0.0878 0.0149,0 0.0455,0.0464 0.0681,0.10349 0.0225,0.0568 0.0654,0.13249 0.0956,0.16757 0.0302,0.035 0.0663,0.11412 0.079,0.17546 0.0126,0.0613 0.0417,0.13314 0.0652,0.15969 0.0233,0.0265 0.0581,0.11702 0.0769,0.20109 0.0188,0.0841 0.0535,0.18445 0.0779,0.22278 0.0243,0.0383 0.0536,0.14806 0.0652,0.24445 0.0115,0.0964 0.0526,0.29057 0.0907,0.43077 0.0647,0.23834 0.0683,0.32556 0.0681,1.35341 -2.1e-4,0.90323 -0.01,1.14494 -0.0532,1.35439 -0.0292,0.14019 -0.0695,0.41024 -0.0887,0.6003 -0.0305,0.30063 -0.0279,0.35623 0.0157,0.42287 0.0556,0.0851 0.0871,0.0906 0.28093,0.0463 0.0735,-0.0168 0.74221,-0.0541 1.48549,-0.0828 0.74329,-0.0286 1.38188,-0.0631 1.41847,-0.0769 0.0592,-0.0225 0.92416,-0.0598 1.8236,-0.0779 0.21338,-0.004 0.34096,-0.0204 0.37459,-0.0483 0.063,-0.0521 0.0651,-0.20856 0.006,-0.37656 -0.0246,-0.0699 -0.0551,-0.22616 -0.0671,-0.34697 -0.0118,-0.1208 -0.0414,-0.30492 -0.0661,-0.41006 -0.13887,-0.59314 -0.14078,-2.57826 -0.003,-2.91775 0.0244,-0.0602 0.0537,-0.19255 0.0652,-0.29376 0.0114,-0.10122 0.049,-0.23662 0.0838,-0.30162 0.0348,-0.0651 0.0631,-0.14223 0.0631,-0.17054 0,-0.0283 0.036,-0.1187 0.0799,-0.2011 0.0437,-0.0824 0.0806,-0.16726 0.0809,-0.18826 2.8e-4,-0.0209 0.0505,-0.10954 0.11238,-0.19715 0.0619,-0.0876 0.13874,-0.19866 0.17052,-0.24742 0.1498,-0.22961 0.4705,-0.52692 0.7117,-0.65945 0.0658,-0.0361 0.12002,-0.077 0.12026,-0.0897 2.5e-4,-0.0127 0.009,-0.0552 0.0197,-0.0946 0.0173,-0.0645 0.008,-0.072 -0.0946,-0.072 z m 17.01171,0.16066 0.30164,0.31051 c 0.29703,0.30629 0.59977,0.79687 0.68312,1.10698 0.0235,0.0877 0.0983,0.35988 0.16657,0.60525 0.2272,0.81646 0.28951,1.47553 0.29573,3.12081 l 0.006,1.5949 0.35093,0.0147 c 0.19278,0.008 0.65122,0.0442 1.01925,0.0799 0.36802,0.0355 0.97059,0.0813 1.33863,0.1025 0.36802,0.0213 0.84145,0.0609 1.05175,0.0878 0.529,0.0677 0.68904,0.0712 0.77084,0.0168 0.0499,-0.033 0.0546,-0.22392 0.0158,-0.65156 -0.0302,-0.33298 -0.0735,-1.04739 -0.0956,-1.58703 -0.0842,-2.05314 0.32616,-3.54221 1.08331,-3.93603 0.0996,-0.0518 0.16546,-0.10956 0.14688,-0.12814 -0.0596,-0.0596 -1.01892,-0.20994 -1.34848,-0.21095 -0.17526,-5e-4 -0.54761,-0.0284 -0.82802,-0.0621 -0.28039,-0.0336 -0.98307,-0.10603 -1.56138,-0.16067 -0.57833,-0.0546 -1.28101,-0.12643 -1.5614,-0.15969 -0.2804,-0.0332 -0.80757,-0.0798 -1.17205,-0.10252 l -0.66338,-0.0413 z m -29.3629,0.54512 c -0.0485,-0.005 -0.1229,-0.002 -0.24248,0.006 -0.1595,0.0105 -0.3314,0.0346 -0.38248,0.0543 -0.051,0.0195 -0.27281,0.0496 -0.49188,0.0661 -0.21906,0.0164 -0.56239,0.0569 -0.76392,0.0907 -0.20154,0.0336 -0.53503,0.0768 -0.7403,0.0956 -0.20526,0.0188 -0.40764,0.0477 -0.45047,0.0642 -0.0428,0.0162 -0.24088,0.0381 -0.43964,0.0492 -0.19875,0.011 -0.49789,0.0469 -0.66438,0.08 -0.16649,0.0327 -0.4888,0.0738 -0.71662,0.0907 -0.22783,0.0169 -0.5001,0.0528 -0.60524,0.0799 -0.10516,0.0269 -0.37041,0.0645 -0.58946,0.0828 -0.34774,0.0293 -0.51794,0.0464 -0.5944,0.0611 -0.0114,0.002 2.7e-4,0.0294 0.0266,0.0602 0.0263,0.0307 0.0571,0.0806 0.0681,0.11139 0.0109,0.0308 0.0526,0.0722 0.0927,0.0917 0.0399,0.0195 0.13702,0.11203 0.21588,0.20602 0.0789,0.094 0.16636,0.19676 0.19517,0.22769 0.0289,0.0308 0.0758,0.10625 0.1035,0.16759 0.0277,0.0614 0.0636,0.13241 0.0799,0.15871 0.0952,0.15315 0.2663,0.57215 0.32529,0.79645 0.1099,0.418 0.13228,0.51696 0.15969,0.70184 0.0168,0.11391 0.0623,0.39319 0.10054,0.62102 0.0622,0.36891 0.0696,0.52929 0.0692,1.46578 -5.1e-4,0.85983 -0.0113,1.11941 -0.0591,1.42536 -0.0469,0.30122 -0.0507,0.38323 -0.0187,0.4219 0.0219,0.0264 0.0852,0.0477 0.13997,0.0472 0.14892,-0.002 0.84216,-0.0874 0.87633,-0.10843 0.0162,-0.0101 0.2356,-0.0396 0.48693,-0.0659 0.25137,-0.0263 0.55749,-0.069 0.68017,-0.0947 0.12267,-0.0257 0.38422,-0.0612 0.58157,-0.0799 0.19735,-0.0185 0.39465,-0.0473 0.43866,-0.064 0.044,-0.0167 0.24087,-0.0451 0.43766,-0.0632 0.51795,-0.0472 0.62646,-0.0667 0.67817,-0.11827 0.0614,-0.0615 0.0591,-0.34897 -0.007,-0.91772 -0.0315,-0.27147 -0.057,-0.80788 -0.0651,-1.37018 -0.0116,-0.81372 -0.006,-0.97663 0.0521,-1.36523 0.0361,-0.24272 0.0661,-0.48797 0.0661,-0.54411 0,-0.0562 0.0352,-0.23662 0.079,-0.40219 0.0434,-0.16556 0.0796,-0.33742 0.0799,-0.38147 3.3e-4,-0.044 0.029,-0.13371 0.0641,-0.19912 0.035,-0.0655 0.064,-0.14375 0.0642,-0.17447 7e-5,-0.0308 0.0431,-0.14228 0.0956,-0.24743 0.0524,-0.10515 0.0956,-0.21002 0.0956,-0.23262 6e-5,-0.0225 0.0265,-0.0798 0.0591,-0.12717 0.0326,-0.0474 0.10968,-0.16481 0.17152,-0.26121 0.062,-0.0964 0.17261,-0.23045 0.24546,-0.29769 0.11242,-0.1038 0.12644,-0.12962 0.0917,-0.17152 -0.0169,-0.0203 -0.04,-0.032 -0.0887,-0.0364 z m 39.73181,0.56581 c -0.13075,0.009 -0.11289,0.0945 0.0305,0.2967 0.71429,1.00695 1.07607,2.87081 1.0143,5.22436 -0.0299,1.13855 -0.0281,1.1614 0.10253,1.18584 0.0732,0.0137 0.29122,0.0543 0.484,0.0907 0.19276,0.036 0.55111,0.0979 0.79647,0.13701 0.24534,0.0391 0.57467,0.0952 0.73239,0.12421 0.15773,0.0289 0.39906,0.0551 0.53526,0.0591 l 0.24742,0.008 -0.0433,-0.3036 c -0.0235,-0.1665 -0.0841,-0.74706 -0.13505,-1.29033 -0.15952,-1.70116 -0.11086,-2.75634 0.1666,-3.59987 0.13715,-0.41704 0.25293,-0.58609 0.5244,-0.76397 0.25638,-0.16799 0.26766,-0.16299 -0.97588,-0.43862 -0.22782,-0.0504 -0.58616,-0.12681 -0.79648,-0.16957 -0.21028,-0.0427 -0.54059,-0.11509 -0.73336,-0.16066 -0.19278,-0.0455 -0.5221,-0.1148 -0.7324,-0.15478 -0.21031,-0.04 -0.46854,-0.0986 -0.5737,-0.13011 -0.10516,-0.0315 -0.31334,-0.0772 -0.46231,-0.10053 -0.0773,-0.0121 -0.13778,-0.0169 -0.18137,-0.0137 z m -49.32,0.7531 c -0.0492,0 -0.21257,0.0382 -0.36276,0.0858 -0.15018,0.0476 -0.38814,0.11914 -0.52834,0.1587 -1.25271,0.35328 -2.05772,0.58522 -2.69793,0.77676 l -0.46725,0.13998 0.1804,0.19913 c 0.0995,0.11001 0.21236,0.25813 0.25038,0.32823 0.11108,0.2048 0.26689,0.90977 0.33809,1.52886 0.0837,0.72844 0.0862,2.75882 0.004,3.49344 -0.0345,0.30904 -0.0458,0.59057 -0.0246,0.62494 0.04,0.0649 0.48099,0.0245 0.82407,-0.0749 0.10515,-0.0304 0.53163,-0.13488 0.94729,-0.23265 l 0.75506,-0.1784 0.0147,-2.03849 c 0.0145,-2.02297 0.0392,-2.30196 0.27796,-3.21841 0.15282,-0.58667 0.46734,-1.32393 0.60229,-1.41058 0.0825,-0.0528 0.002,-0.18236 -0.11337,-0.18236 z m 13.30734,22.00738 0,1.08926 0,1.08823 0.98771,-0.0364 0.9877,-0.0374 0.0373,-1.05176 0.0364,-1.05179 -1.02515,0 -1.02419,0 z m -44.86449,2.15679 0,6.37864 0,6.37768 28.45506,-0.0324 28.45406,-0.0315 0,-6.30866 0,-6.30966 -1.0833,0 -1.08334,0 -0.0334,5.32589 -0.0334,5.3259 -1.17795,-0.0364 -1.17695,-0.0364 -0.0344,-3.22332 -0.0334,-3.22333 -1.04982,0.0374 -1.0488,0.0364 -0.0344,3.21841 -0.0334,3.2184 -1.46381,0 -1.46381,0 0,-2.42193 0,-2.42193 -1.14641,0 -1.14739,0 0,2.42193 0,2.42193 -1.46184,0 -1.46182,0 -0.0364,-1.62546 -0.0354,-1.62449 -1.05078,-0.0374 -1.05176,-0.0364 0,1.66194 0,1.66195 -18.79984,0 -18.79984,0 -0.0226,-5.00258 c -0.0129,-2.75143 -0.0295,-5.14672 -0.0364,-5.32196 -0.0122,-0.30983 -0.0413,-0.31887 -1.05965,-0.35486 l -1.04784,-0.0374 z m 60.28623,0 -1.05177,0.0374 c -0.57831,0.0203 -1.03676,0.0795 -1.01925,0.13209 0.0175,0.0525 0.0315,2.90629 0.0315,6.34119 l 0,6.24558 1.02024,0 1.01925,0 0,-6.37866 0,-6.37765 z m 65.51158,0.26516 0,6.1815 0,6.18153 5.73498,0 5.73596,0 0,-2.67133 c 0,-3.0715 -0.13113,-3.66929 -0.98672,-4.48902 -0.91773,-0.8793 -1.10656,-0.92845 -3.76055,-0.97489 l -2.3904,-0.0413 0,1.02911 0,1.03009 1.9064,0 c 2.84637,0 2.93747,0.0806 2.93747,2.60627 l 0,1.59984 -3.50525,0 -3.50524,0 0,-5.22633 0,-5.22537 -1.08334,0 -1.08331,0 z m -82.59032,0.1173 0,1.15231 0,1.15232 1.15232,0 1.15133,0 -0.0364,-1.11485 -0.0364,-1.11585 -1.11585,-0.0364 -1.11485,-0.0374 z m 3.18588,0 0,1.15725 0,1.15724 1.11583,-0.0364 1.11487,-0.0374 0,-1.08333 0,-1.08332 -1.11487,-0.0364 -1.11583,-0.0374 z m -64.50516,0.0483 -1.06754,0.0177 -1.06656,0.0166 -0.0178,1.01727 c -0.01,0.5594 -0.003,1.05389 0.0138,1.0991 0.024,0.0625 0.2838,0.0828 1.08529,0.0828 l 1.05275,0 0,-1.11683 0,-1.11683 z m 3.24995,0 -1.09909,0.0177 -1.09909,0.0166 -0.0177,1.01727 c -0.01,0.5594 -0.003,1.05389 0.0138,1.0991 0.0241,0.0628 0.28932,0.0828 1.11682,0.0828 l 1.08529,0 0,-1.11683 0,-1.11683 z m 8.79764,0 -1.10106,0.0177 -1.10007,0.0166 -0.0178,1.01727 c -0.01,0.5594 -0.003,1.05499 0.0147,1.10107 0.0251,0.0658 0.26431,0.0798 1.10107,0.0661 l 1.06852,-0.0177 0.0178,-1.10007 0.0168,-1.10106 z m -5.22831,0.003 0,1.11485 0,1.11585 1.11486,0 1.11583,0 0,-1.11585 0,-1.11485 -1.11583,0 -1.11486,0 z m 81.4804,0.1577 c -0.53913,0 -1.01204,0.0289 -1.08136,0.0661 -0.11386,0.0611 -0.12419,0.14232 -0.12419,1.07247 0,0.55372 0.0201,1.02661 0.0443,1.05078 0.0241,0.024 0.51866,0.0361 1.09908,0.0266 l 1.05571,-0.0177 0.0178,-0.95615 c 0.0101,-0.52577 0.002,-1.02023 -0.0168,-1.0991 -0.0347,-0.14087 -0.0531,-0.14294 -0.99459,-0.14294 z m 2.96803,0 c -0.95469,0 -0.97267,0.002 -1.01038,0.14295 -0.0531,0.19946 -0.0499,1.99244 0.004,2.04636 0.0242,0.024 0.50466,0.0361 1.06754,0.0266 l 1.0232,-0.0177 0.0177,-1.01135 c 0.012,-0.6915 -0.006,-1.0388 -0.056,-1.0991 -0.0565,-0.0681 -0.29544,-0.0878 -1.04587,-0.0878 z m -87.76837,3.59399 -1.1257,0.12223 c -1.37783,0.15036 -3.07223,0.90984 -4.10853,1.84133 -1.54726,1.39082 -2.87635,4.09494 -2.87635,5.85228 l 0,0.70184 8.38165,0 8.38168,0 0,-4.23569 0,-4.23566 -1.75757,0.004 c -2.10424,0.006 -3.17544,0.22658 -3.94588,0.8142 -1.24967,0.95318 -1.52764,3.45335 -0.54806,4.93358 l 0.48793,0.73733 -1.44408,0 -1.44509,0 0,-3.26769 0,-3.26769 z m 125.79288,0.0364 c -0.92388,-0.0109 -1.18572,0.005 -1.24794,0.0739 -0.0432,0.0481 -0.15816,0.28794 -0.2553,0.53328 -0.0972,0.24536 -0.19971,0.50361 -0.22868,0.5737 -0.31221,0.75533 -0.57272,1.44183 -0.57272,1.51112 0,0.047 0.18959,0.27098 0.42091,0.49779 0.83637,0.82009 1.26763,1.44076 1.57026,2.26028 0.21858,0.59188 0.27399,0.92723 0.16463,0.99657 -0.0951,0.0603 -36.24719,0.077 -36.40398,0.0168 -0.0901,-0.0344 -0.10054,-0.37585 -0.10054,-3.19278 l 0,-3.15335 -0.62101,0.0286 c -0.74353,0.0345 -1.21342,0.11799 -1.89557,0.33514 -0.59489,0.18938 -1.52226,0.64657 -1.97638,0.97489 -0.99944,0.72259 -2.04187,2.02747 -2.6664,3.3367 -0.12826,0.26889 -0.23262,0.51967 -0.23262,0.55793 0,0.0382 -0.028,0.1195 -0.0612,0.18038 -0.17798,0.32647 -0.47718,1.66532 -0.54806,2.45248 l -0.0384,0.43076 22.7812,0 22.78119,0 0.22278,-0.22375 c 0.12268,-0.12268 0.25022,-0.22278 0.28389,-0.22278 0.0336,0 0.1676,0.1001 0.29769,0.22278 l 0.23656,0.22375 2.41209,0 c 1.32654,0 2.45718,0.0172 2.51262,0.0385 0.0854,0.0327 0.10055,0.1774 0.10055,0.94532 0,0.49863 0.0213,0.92721 0.0463,0.9522 0.0592,0.0562 3.21637,0.009 3.52299,-0.0521 0.42804,-0.086 1.07826,-0.39727 1.42144,-0.68016 0.29231,-0.24094 0.68671,-0.81766 0.82209,-1.20358 0.27386,-0.78063 0.27305,-0.78043 0.27305,-4.58857 l 0,-3.66494 -1.17894,-0.0177 c -2.59434,-0.0387 -3.80093,0.44932 -4.46436,1.8029 -0.34743,0.70885 -0.39232,1.00234 -0.43471,2.83496 l -0.0394,1.68954 -1.56041,0.0168 c -0.85805,0.009 -1.59669,0.002 -1.64222,-0.0147 -0.06,-0.0229 -0.005,-0.18549 0.20206,-0.59046 0.69859,-1.36996 0.93849,-2.23605 0.95223,-3.43033 0.009,-0.73848 0.003,-0.77224 -0.19222,-1.14542 -0.22107,-0.42276 -0.63427,-0.84147 -1.02909,-1.0429 -0.19972,-0.10189 -0.4321,-0.13864 -1.07348,-0.17054 -0.45033,-0.0223 -0.94726,-0.0495 -1.10499,-0.0601 -0.15773,-0.0104 -0.81308,-0.0249 -1.45592,-0.0324 z m -114.79708,0.01 0,4.01093 c -3.1e-4,4.56677 -0.12563,5.12276 -1.21737,5.44419 -0.5623,0.16553 -0.58552,0.20915 -0.58552,1.09613 0,0.50822 0.0603,0.98493 0.13406,1.05866 0.23152,0.23152 1.73248,-0.0836 2.34703,-0.49286 0.32368,-0.21556 0.77005,-0.75746 0.99165,-1.20357 0.37929,-0.76365 0.40603,-1.07744 0.4613,-5.36239 l 0.0593,-4.55109 -1.09514,0 -1.09517,0 z m 115.48117,2.04143 c 0.34531,-0.0161 1.00633,0.0402 1.16119,0.12125 0.0833,0.0435 0.19485,0.0992 0.24743,0.12322 0.19989,0.0914 0.31241,0.45982 0.31543,1.03305 0.003,0.55188 -0.0225,0.6648 -0.2701,1.18288 -0.11174,0.23378 -0.30064,0.47358 -0.30064,0.38245 0,-0.0163 -0.0844,-0.26515 -0.18827,-0.55298 -0.25175,-0.69717 -0.52352,-1.22118 -0.90391,-1.74475 -0.17279,-0.23784 -0.29495,-0.46407 -0.27108,-0.50272 0.0142,-0.0232 0.0949,-0.0369 0.20995,-0.0424 z m 9.75872,0.19321 0.41204,0.0197 0.0168,2.75708 c 0.0183,3.04318 0.0279,2.96294 -0.38345,3.16814 -0.13048,0.0652 -0.38134,0.0966 -0.76098,0.0966 l -0.56583,0 0.0187,-2.72456 c 0.0184,-2.71348 0.019,-2.72429 0.16264,-2.92565 0.19773,-0.27722 0.58494,-0.4155 1.10006,-0.39133 z m -130.56972,0.10843 0.64268,0 0,1.98329 c 0,1.154 -0.0723,1.9823 -0.17347,1.9823 -0.36858,0 -1.52384,-1.20668 -1.84036,-1.92216 -0.54859,-1.24016 -0.01,-2.04343 1.37115,-2.04343 z m 81.21031,0.53229 c 0.0217,0.01 0.0353,0.0317 0.0463,0.0642 0.0146,0.0437 0.01,0.8536 -0.01,1.79995 l -0.0354,1.7211 -1.47762,0.0166 c -1.03345,0.0119 -1.49028,-0.005 -1.52098,-0.0541 -0.0389,-0.0631 -0.0108,-0.15164 0.15969,-0.50468 0.55945,-1.15813 1.33118,-2.09009 2.26324,-2.73441 0.3701,-0.25586 0.5096,-0.33793 0.57469,-0.30855 z m -89.40369,0.009 c 0.11325,0 0.18433,0.69415 0.18433,1.80191 l 0,1.80289 -1.53181,0 c -0.84267,0 -1.53077,-0.0608 -1.52986,-0.13503 0.008,-0.66915 2.33065,-3.46977 2.87734,-3.46977 z m 149.18326,6.65957 0,1.08333 0,1.08331 1.08331,0 1.08333,0 0,-1.08331 0,-1.08333 -1.08333,0 -1.08331,0 z m -29.66455,6.86955 c -0.17011,-0.0253 -0.36646,0.0335 -0.65058,0.076 -0.7739,0.11519 -0.93411,0.25776 -0.84378,0.75114 0.0775,0.42278 0.13011,0.28348 -2.10749,5.62259 -0.64633,1.54219 -1.23544,2.95317 -1.30905,3.1356 -0.0736,0.18244 -0.0976,0.42567 -0.0532,0.54117 0.0993,0.25872 1.28899,0.30076 1.451,0.0513 0.0567,-0.0874 0.36395,-0.84709 0.68311,-1.68856 l 0.58059,-1.52985 1.5407,-0.0354 1.54167,-0.0354 0.38839,1.05474 c 0.21389,0.58041 0.50106,1.34198 0.63776,1.69248 l 0.24839,0.63778 0.81028,0.0364 c 0.56016,0.0255 0.88875,-0.0207 1.06459,-0.14982 0.25124,-0.18441 0.25184,-0.19524 0.0177,-0.86547 -0.13036,-0.37329 -0.43166,-1.18065 -0.66931,-1.79404 -0.23764,-0.61338 -0.63731,-1.64537 -0.88813,-2.29379 -1.6624,-4.29778 -1.93231,-5.13046 -2.44264,-5.20663 z m 21.39231,0.0138 c -0.1663,-0.0136 -0.36998,0.0245 -0.65058,0.0631 -0.74348,0.10226 -0.94442,0.29869 -0.83097,0.81519 0.0656,0.29855 -0.0974,0.81179 -0.76395,2.39532 -0.46651,1.1083 -1.05252,2.5023 -1.30115,3.09816 -0.24865,0.59583 -0.60718,1.45665 -0.79747,1.91231 -0.60684,1.45309 -0.67017,1.64782 -0.59438,1.84529 0.093,0.24243 1.29032,0.2727 1.44507,0.0364 0.0567,-0.0866 0.36605,-0.84728 0.68706,-1.68955 l 0.58355,-1.53083 1.5269,-0.0354 1.52589,-0.0354 0.42682,1.11881 c 0.23451,0.6154 0.53901,1.39105 0.6772,1.72404 l 0.25137,0.60522 0.75802,0 c 0.83807,0 1.24992,-0.15544 1.24992,-0.47216 0,-0.11479 -0.43759,-1.33149 -0.97194,-2.70386 -0.53437,-1.37236 -1.28134,-3.29865 -1.66095,-4.28003 -0.89852,-2.32285 -1.06153,-2.82551 -1.56041,-2.86651 z m -134.54025,0.0394 c -0.52311,0.007 -1.32023,0.14362 -1.47958,0.28784 -0.2316,0.20957 -0.17157,0.43909 0.27206,1.04093 l 0.25038,0.34007 -0.009,1.44411 c -0.005,0.79415 -0.05,2.44804 -0.10054,3.67478 -0.12537,3.05052 -0.12475,3.16203 0.0374,3.36824 l 0,8e-4 c 0.12202,0.15513 0.1669,0.16666 0.58946,0.1597 1.07943,-0.0178 1.07767,-0.0137 1.00249,-1.74476 -0.0319,-0.73604 -0.0748,-2.13562 -0.0956,-3.10997 -0.0369,-1.73557 -0.0355,-1.76972 0.0848,-1.7053 0.0676,0.036 0.23201,0.21658 0.36571,0.40119 0.13371,0.18461 0.26005,0.35015 0.27996,0.36767 0.0198,0.0175 0.6373,0.83467 1.37212,1.81572 0.73483,0.98103 1.37029,1.82685 1.41255,1.87977 0.0422,0.0528 0.33459,0.43995 0.6496,0.86055 0.86619,1.15656 0.89185,1.18272 1.19767,1.22328 0.14673,0.0194 0.42308,0.016 0.61509,-0.008 0.54987,-0.0688 0.53018,0.0467 0.57468,-3.38204 0.0209,-1.61229 0.0721,-3.69966 0.11337,-4.63883 0.0736,-1.67239 0.0725,-1.71097 -0.0532,-1.87978 -0.10985,-0.14755 -0.18194,-0.17525 -0.50371,-0.19322 -0.20674,-0.0115 -0.52481,0.0113 -0.70678,0.0513 -0.47413,0.10395 -0.48869,0.17111 -0.40907,1.89357 0.0353,0.76428 0.0723,2.07756 0.0828,2.91874 0.0206,1.6451 0.004,1.72593 -0.28192,1.32877 -0.0795,-0.11052 -0.79154,-1.05643 -1.5821,-2.10255 -0.79056,-1.04613 -1.82898,-2.42236 -2.30758,-3.05774 -0.47863,-0.63539 -0.9161,-1.1729 -0.97292,-1.1947 -0.0797,-0.0305 -0.22387,-0.0428 -0.39824,-0.0404 z m 32.40289,0.0868 c -0.9009,-0.0118 -1.94587,0.0504 -2.49783,0.16266 -0.17865,0.0362 -0.40183,0.0662 -0.49581,0.066 -0.17597,-1.3e-4 -0.77802,0.12696 -0.83098,0.17546 -0.0163,0.0149 -0.0102,0.1387 0.0138,0.27502 0.0241,0.13631 0.0576,0.34922 0.075,0.47314 l 0.0315,0.22574 0.38639,0 c 0.26165,0 0.41176,0.0193 0.46233,0.0611 0.0688,0.0567 0.074,0.40413 0.074,4.24849 l 0,4.1854 0.10054,0.15378 c 0.12093,0.18444 0.24151,0.20265 1.02615,0.1587 0.54602,-0.0305 0.84511,-0.12735 0.92954,-0.30065 0.0216,-0.0444 0.0497,-0.97264 0.0622,-2.06314 l 0.0226,-1.98328 0.46823,-0.0128 c 0.62901,-0.0173 0.9477,0.0841 1.23512,0.39133 0.11082,0.1185 0.21548,0.27862 0.23262,0.35684 0.0172,0.0783 0.05,0.15443 0.073,0.16856 0.0229,0.0141 0.0408,0.0596 0.0404,0.10152 -5e-4,0.0697 0.12063,0.50942 0.23263,0.84279 0.0249,0.0744 0.0734,0.23589 0.10646,0.35981 0.033,0.12392 0.0935,0.33683 0.13505,0.47314 0.0415,0.13631 0.10258,0.33896 0.13504,0.45048 0.22601,0.77714 0.60105,1.16827 1.23119,1.28145 0.19016,0.0341 0.38191,0.0521 0.42582,0.0404 0.0439,-0.0117 0.34213,-0.0472 0.66243,-0.0789 0.36515,-0.0359 0.62175,-0.0841 0.68901,-0.12813 0.10244,-0.0672 0.10686,-0.0878 0.0878,-0.46823 -0.0109,-0.21913 -0.0401,-0.42344 -0.0651,-0.45443 -0.0249,-0.031 -0.12358,-0.0562 -0.21882,-0.0562 -0.35721,0 -0.56618,-0.20296 -0.69692,-0.67622 -0.0171,-0.062 -0.0461,-0.13291 -0.0652,-0.1577 -0.0189,-0.0247 -0.0482,-0.11632 -0.0652,-0.20307 -0.0169,-0.0867 -0.0575,-0.21841 -0.0907,-0.29275 -0.0331,-0.0744 -0.10507,-0.28728 -0.15968,-0.47317 -0.0546,-0.18586 -0.12809,-0.40194 -0.16264,-0.48003 -0.0345,-0.0781 -0.0632,-0.17412 -0.0632,-0.21292 0,-0.0687 -0.0491,-0.19668 -0.23756,-0.61412 -0.15278,-0.33833 -0.43586,-0.66474 -0.6841,-0.78957 -0.17575,-0.0884 -0.13694,-0.21702 0.11534,-0.38049 0.43525,-0.28204 0.82536,-0.77411 1.01629,-1.28145 0.1056,-0.28068 0.16069,-0.81411 0.1301,-1.26566 -0.0232,-0.3446 -0.0523,-0.45549 -0.19221,-0.73636 -0.44813,-0.90043 -1.34486,-1.37474 -2.84581,-1.5052 -0.24484,-0.0213 -0.52867,-0.0334 -0.82899,-0.0373 z m 42.10741,0.0137 c -1.28213,0.0248 -2.58874,0.42851 -3.53581,1.20458 -0.37063,0.30369 -0.70322,0.76304 -1.03008,1.42436 l -0.48202,0.97687 0.005,1.66391 c 0.005,1.5272 0.0338,1.72226 0.34402,2.38349 0.58954,1.25699 1.50871,2.06544 2.81031,2.47221 0.73703,0.23033 2.43093,0.22529 3.33373,-0.01 1.65897,-0.43208 2.91371,-1.71583 3.33079,-3.40864 0.55774,-2.26372 0.0328,-4.39263 -1.38891,-5.6364 -0.84741,-0.74129 -2.10483,-1.09533 -3.38696,-1.07051 z m 46.88919,0.0265 c -1.19835,-0.0539 -3.8475,0.19633 -4.03263,0.38146 -0.0339,0.0339 -0.0237,0.26895 0.0237,0.52146 0.0788,0.41991 0.12347,0.45937 0.51848,0.45937 l 0.43176,0 0,4.18146 c 0,3.28345 0.036,4.23161 0.16954,4.41409 0.14201,0.19424 0.30169,0.22261 0.967,0.17446 0.49913,-0.036 0.83848,-0.12522 0.91083,-0.23953 0.0635,-0.10026 0.11628,-1.05719 0.11729,-2.12621 l 0.002,-1.94386 0.62002,0 c 0.92718,0 1.21038,0.2868 1.60871,1.62941 0.63153,2.12859 0.88462,2.58116 1.53084,2.74131 l 8e-4,0 c 0.25233,0.062 1.13062,0.005 1.68855,-0.1104 0.22679,-0.0468 0.28589,-0.14551 0.28388,-0.47118 -0.002,-0.33836 -0.076,-0.44517 -0.414,-0.60228 -0.37568,-0.17454 -0.45424,-0.32089 -0.89505,-1.68066 -0.33601,-1.0365 -0.59682,-1.61234 -0.85955,-1.8936 -0.20763,-0.22227 -0.37754,-0.42857 -0.37754,-0.45835 0,-0.0297 0.20352,-0.23291 0.45245,-0.45147 0.637,-0.5593 0.85307,-1.04824 0.86055,-1.94583 0.0143,-1.72708 -1.01494,-2.46274 -3.60777,-2.57965 z m -107.87134,0.0177 c -0.12712,-0.002 -0.32369,0.0229 -0.691,0.072 -0.42616,0.0567 -0.91792,0.13137 -1.09317,0.16558 -0.17524,0.0341 -0.37643,0.0704 -0.44653,0.0799 -0.10061,0.0136 -0.13156,0.0735 -0.14688,0.2839 -0.0107,0.14656 0.0119,0.38311 0.0503,0.52539 l 0.0701,0.25828 0.43569,0 0.43669,0 0.16066,0.33514 c 0.0884,0.184 0.19578,0.43427 0.23955,0.55693 0.0437,0.12267 0.12161,0.32386 0.17249,0.44652 0.13926,0.33575 0.18668,0.45648 0.27404,0.70088 0.0438,0.12266 0.11407,0.30885 0.15672,0.41401 0.0426,0.10514 0.15666,0.39241 0.25236,0.63775 0.0957,0.24537 0.1962,0.50359 0.22375,0.5737 0.12396,0.31541 0.38242,0.98838 0.51357,1.33762 0.079,0.21031 0.17802,0.46855 0.22079,0.57371 0.0428,0.10514 0.15667,0.39241 0.25236,0.63776 0.0957,0.24535 0.1963,0.50261 0.22376,0.57271 0.0275,0.0703 0.0942,0.24227 0.14786,0.38246 0.39851,1.04153 0.52164,1.32792 0.63086,1.46677 0.11053,0.14049 0.17226,0.15872 0.55004,0.15772 0.7404,-0.002 0.72956,0.009 1.24893,-1.26567 0.16242,-0.3986 0.35291,-0.85704 0.42385,-1.01926 0.0711,-0.16221 0.15379,-0.35277 0.18335,-0.42287 0.0295,-0.0701 0.0964,-0.22726 0.14884,-0.34994 0.0524,-0.12268 0.15963,-0.38091 0.23757,-0.57368 0.0779,-0.19278 0.1788,-0.43688 0.22475,-0.54216 0.0459,-0.10529 0.37459,-0.89404 0.73041,-1.75262 0.71179,-1.71754 0.73896,-1.78046 0.97982,-2.31155 0.0918,-0.20249 0.1666,-0.39112 0.1666,-0.41893 0,-0.0278 0.0546,-0.16176 0.12123,-0.29868 l 0.12125,-0.24938 0.073,0.26909 c 0.0399,0.1482 0.10639,0.27201 0.14884,0.27501 0.0424,0.003 0.22662,0.002 0.40809,-0.004 0.27091,-0.008 0.34214,0.0124 0.39824,0.11729 0.0464,0.087 0.0681,1.39133 0.0681,4.08685 0,2.71441 0.0217,4.00059 0.0691,4.0888 0.15581,0.29114 0.33525,0.30852 3.09518,0.30852 2.73387,0 2.88976,-0.0148 3.09816,-0.29177 0.13469,-0.17898 0.37949,-1.1154 0.49482,-1.89358 0.099,-0.66815 0.0692,-0.72227 -0.43765,-0.80238 -0.39065,-0.0619 -0.44887,-0.0254 -0.61806,0.37556 -0.18961,0.44948 -0.4704,0.8789 -0.65649,1.00643 -0.31265,0.21425 -0.66546,0.26812 -1.77924,0.26812 -1.07077,0 -1.0848,-0.002 -1.12276,-0.14392 -0.0559,-0.20889 -0.0471,-2.80638 0.01,-2.89607 0.0366,-0.0577 0.41389,-0.063 1.57616,-0.0226 0.84039,0.029 1.546,0.0422 1.56732,0.0296 0.0213,-0.0126 0.0731,-0.2373 0.11533,-0.49976 0.0677,-0.41957 0.0639,-0.50483 -0.0306,-0.70381 -0.0675,-0.142 -0.16753,-0.24165 -0.26911,-0.26713 -0.16848,-0.0422 -1.85698,0.0128 -2.54218,0.0828 l -0.39431,0.0404 -0.0394,-0.21586 c -0.0215,-0.11857 -0.0299,-0.76041 -0.0197,-1.42637 l 0.0187,-1.21047 1.24991,-0.0177 1.24892,-0.0168 0.2001,0.20404 c 0.11001,0.11253 0.2001,0.25192 0.2001,0.30952 0,0.0575 0.0203,0.12578 0.0452,0.15082 0.025,0.025 0.0919,0.22323 0.14784,0.44062 l 0.10155,0.39528 0.37851,-0.0168 c 0.20819,-0.009 0.41454,-0.0302 0.45837,-0.0463 0.0598,-0.0218 0.0799,-0.3203 0.0799,-1.19568 0,-0.99143 -0.0168,-1.18995 -0.10842,-1.32385 -0.0593,-0.0867 -0.1384,-0.1793 -0.17547,-0.20503 -0.10194,-0.0708 -4.62139,-0.0575 -5.11594,0.0147 -0.23723,0.0347 -0.71226,0.10527 -1.05473,0.15674 -0.66466,0.0999 -0.78518,0.0876 -0.84082,-0.0878 -0.06,-0.18904 -0.40964,-0.25238 -0.93447,-0.16854 -0.55989,0.0894 -0.70208,0.15932 -0.81422,0.39822 -0.0464,0.0991 -0.10999,0.22994 -0.14096,0.29079 -0.031,0.061 -0.056,0.14571 -0.056,0.18926 0,0.0703 -0.2385,0.76014 -0.38146,1.10205 -0.0293,0.0703 -0.0689,0.18421 -0.0868,0.25432 -0.018,0.0701 -0.15225,0.45746 -0.29869,0.86053 -0.1464,0.40309 -0.2807,0.79792 -0.29865,0.8773 -0.018,0.0794 -0.0579,0.16033 -0.0888,0.17942 -0.0308,0.0191 -0.056,0.0989 -0.056,0.17742 0,0.0786 -0.0233,0.16974 -0.0521,0.20306 -0.0288,0.0332 -0.10638,0.2323 -0.1725,0.4426 -0.0662,0.21028 -0.13874,0.4115 -0.16068,0.44652 -0.0219,0.0349 -0.091,0.23526 -0.15377,0.44556 -0.0629,0.2103 -0.13901,0.41027 -0.16956,0.44357 -0.0305,0.0333 -0.056,0.12197 -0.056,0.19716 0,0.0752 -0.0567,0.18758 -0.12616,0.25036 -0.1214,0.10987 -0.12711,0.10979 -0.16462,-0.006 -0.0214,-0.0662 -0.062,-0.17732 -0.0897,-0.24743 -0.0276,-0.0703 -0.0993,-0.25627 -0.15967,-0.41399 -0.0604,-0.15772 -0.13612,-0.33737 -0.16759,-0.39825 -0.0313,-0.0608 -0.0571,-0.15446 -0.0571,-0.20799 0,-0.0535 -0.0268,-0.14712 -0.0601,-0.20797 -0.0878,-0.16026 -0.21326,-0.47222 -0.48007,-1.19372 -0.1296,-0.35051 -0.27234,-0.72287 -0.31642,-0.82802 -0.044,-0.10514 -0.11583,-0.29231 -0.15967,-0.41498 -0.0438,-0.12268 -0.10172,-0.27985 -0.12914,-0.34994 -0.14292,-0.36538 -0.38649,-1.0002 -0.51357,-1.33863 -0.15503,-0.41289 -0.29253,-0.75054 -0.39134,-0.96108 -0.0341,-0.073 -0.14871,-0.18306 -0.25431,-0.24545 -0.091,-0.0537 -0.14888,-0.0815 -0.27601,-0.0828 z m -3.19278,0.0109 c -0.32149,0.01 -0.9975,0.0953 -2.22183,0.27601 l -0.31642,0.0463 0.0177,0.28684 c 0.0101,0.15773 0.0388,0.38794 0.0642,0.5106 l 0.0463,0.22279 0.44359,0.0315 0.44356,0.0324 0.0315,4.23766 c 0.0175,2.33083 0.0567,4.27516 0.0868,4.32145 0.0299,0.0462 0.11594,0.1111 0.19123,0.14391 0.15939,0.0695 1.1216,0.0258 1.43423,-0.0652 0.40872,-0.1189 0.38715,0.16251 0.38937,-5.01046 l 0.002,-4.72066 -0.14393,-0.12912 c -0.0789,-0.0712 -0.19426,-0.14724 -0.25725,-0.16955 -0.0354,-0.0125 -0.1038,-0.0181 -0.21096,-0.0147 z m -19.48097,7.9e-4 c -0.23572,-0.019 -0.6118,0.0192 -1.25582,0.10449 -0.41683,0.0552 -0.65646,0.0958 -1.32481,0.22473 -0.0803,0.0155 -0.12749,0.0569 -0.10548,0.0927 0.022,0.0356 0.0585,0.25688 0.0818,0.49187 l 0.0424,0.42782 0.42977,0.0187 c 0.38318,0.0168 0.43273,0.0344 0.46132,0.15969 0.0177,0.0773 0.0405,1.60237 0.0503,3.38992 0.0163,3.00965 0.0261,3.27631 0.139,3.60087 0.30555,0.87832 0.89116,1.39825 1.86894,1.659 0.23537,0.0628 0.61013,0.11623 0.83294,0.11927 0.43628,0.006 1.53219,-0.16655 1.63138,-0.25728 0.0332,-0.0304 0.10922,-0.0552 0.16955,-0.0552 0.0603,0 0.34304,-0.0987 0.62791,-0.21882 l 0.51849,-0.21786 0.13603,0.28094 c 0.11219,0.23095 0.17662,0.2895 0.35683,0.32333 0.34871,0.0654 1.27348,-0.07 1.46775,-0.2149 l 0.16758,-0.12617 0.0168,-4.70192 c 0.0123,-3.54792 -0.002,-4.72405 -0.0592,-4.79262 -0.18544,-0.22346 -0.37876,-0.25699 -1.06065,-0.18433 -0.54774,0.0584 -0.68281,0.0948 -0.81224,0.21981 l -0.15574,0.15081 0,3.80886 0,3.80888 -0.33416,0.14488 c -1.49286,0.64695 -2.7903,0.46712 -3.22334,-0.44751 -0.0932,-0.19674 -0.10928,-0.64777 -0.138,-3.82365 -0.0253,-2.80437 -0.0512,-3.6327 -0.11632,-3.74676 -0.0821,-0.14386 -0.1773,-0.22052 -0.41302,-0.23954 z m 50.41613,8e-4 c -1.26539,0 -1.52851,0.0501 -2.34409,0.45245 -0.27172,0.13405 -0.44975,0.26785 -0.72549,0.54116 -0.20119,0.19943 -0.38152,0.41234 -0.4002,0.47316 -0.0186,0.0609 -0.0546,0.13608 -0.0799,0.16756 -0.0252,0.0315 -0.0951,0.19399 -0.15574,0.36078 -0.0976,0.26825 -0.11129,0.38094 -0.11535,0.97884 -0.004,0.59151 0.008,0.71209 0.0966,0.96503 0.13308,0.38066 0.35379,0.70518 0.69691,1.02614 0.41596,0.38909 0.69485,0.56248 1.40466,0.87138 0.12392,0.0539 0.28642,0.12423 0.36078,0.15673 0.0743,0.0324 0.22559,0.0939 0.33712,0.13604 0.11152,0.0421 0.28652,0.11478 0.38837,0.16165 0.10186,0.0468 0.20636,0.0848 0.23164,0.0848 0.0612,0 0.57306,0.264 0.79943,0.41204 0.32821,0.21463 0.51849,0.51146 0.51849,0.8083 0,0.29257 -0.13078,0.64589 -0.31148,0.84181 -0.20598,0.22332 -0.31706,0.29011 -0.68706,0.41498 -0.26359,0.0888 -0.36951,0.0987 -0.87827,0.0838 -0.54096,-0.0158 -0.598,-0.0258 -0.87338,-0.15968 -0.36245,-0.17611 -0.68894,-0.49296 -0.82603,-0.80139 -0.0667,-0.14983 -0.16364,-0.5322 -0.16364,-0.64467 0,-0.20853 -0.0772,-0.2411 -0.49777,-0.20601 -0.53793,0.0448 -0.55517,0.0689 -0.51555,0.70872 0.0171,0.27668 0.0282,0.79819 0.0246,1.15922 l -0.006,0.65649 0.13996,0.14688 c 0.17329,0.18133 0.39875,0.26659 0.92168,0.35092 0.22304,0.0359 0.48736,0.0817 0.5865,0.10153 0.24762,0.0497 1.71036,0.0521 1.95963,0.003 0.11153,-0.022 0.31417,-0.062 0.45048,-0.0887 0.33093,-0.0649 0.85314,-0.22927 0.88322,-0.27798 0.0132,-0.0215 0.0575,-0.0394 0.0995,-0.0394 0.11553,-1e-5 0.76958,-0.43375 0.97588,-0.64763 0.60806,-0.63041 0.8775,-1.52601 0.74521,-2.47812 -0.13127,-0.94494 -0.67262,-1.60315 -1.74474,-2.12227 -0.24198,-0.11718 -0.4976,-0.24143 -0.56779,-0.27601 -0.0702,-0.0344 -0.15141,-0.0641 -0.18038,-0.0652 -0.029,-8e-4 -0.13349,-0.0408 -0.23262,-0.0887 -0.0992,-0.0479 -0.20547,-0.0868 -0.2356,-0.0878 -0.05,-0.002 -0.14011,-0.0368 -0.53132,-0.20601 -0.80527,-0.34804 -1.17839,-0.63551 -1.3041,-1.00447 -0.0887,-0.26014 -0.0886,-0.27509 0.0226,-0.6486 0.15783,-0.52991 0.52268,-0.80603 1.17795,-0.89207 0.5025,-0.066 0.90557,-0.006 1.244,0.18334 0.24162,0.13543 0.49869,0.37455 0.50272,0.46723 8e-4,0.0228 0.0292,0.0733 0.0622,0.11238 0.0958,0.1138 0.25531,0.58345 0.25531,0.75112 0,0.17834 -0.0245,0.17419 0.56679,0.10153 0.39891,-0.0489 0.4288,-0.0605 0.45539,-0.1666 0.0157,-0.0623 0.003,-0.43858 -0.0265,-0.83688 -0.11717,-1.54989 -0.11618,-1.54452 -0.43274,-1.69052 -0.37626,-0.17356 -1.01404,-0.25037 -2.072,-0.25037 z m 6.16081,0 -0.42189,0.008 c -0.40534,0.008 -1.16058,0.0976 -1.72898,0.20404 -0.14871,0.0279 -0.36162,0.0624 -0.47314,0.0769 l -0.20307,0.0266 0.008,0.47119 c 0.01,0.57468 0.0251,0.59259 0.46229,0.55596 0.36557,-0.0306 0.48554,0.0211 0.52046,0.22375 0.0138,0.0803 0.0296,1.98457 0.0354,4.23174 l 0.0108,4.08584 0.10648,0.11337 c 0.0588,0.0627 0.17091,0.12199 0.24839,0.13208 0.272,0.0354 1.0448,-0.0174 1.30214,-0.0897 0.204,-0.0573 0.27895,-0.10459 0.34895,-0.21786 0.0872,-0.14143 0.0897,-0.23845 0.0897,-4.80642 l 0,-4.66248 -0.15278,-0.17645 -0.15279,-0.17645 z m 47.39387,0.009 c -1.52632,-0.009 -2.41493,0.26208 -3.09915,0.9463 -0.6472,0.64721 -0.82823,1.18543 -0.76689,2.27111 0.079,1.39748 0.74891,2.07529 2.8596,2.89312 1.27476,0.49394 1.96259,1.00238 1.96259,1.451 0,0.86419 -0.92172,1.48671 -2.04242,1.37903 -0.96693,-0.0929 -1.52113,-0.58769 -1.7142,-1.53183 -0.0478,-0.23416 -0.15174,-0.35092 -0.31345,-0.35092 -0.6046,0 -0.64565,0.088 -0.64565,1.39975 0,1.41192 0.0608,1.52044 0.93545,1.67573 0.29186,0.0517 1.16092,0.0791 1.93203,0.0611 1.08309,-0.0251 1.53421,-0.0916 1.98229,-0.29177 1.35921,-0.60739 2.00982,-1.67174 1.86699,-3.05577 -0.13603,-1.31797 -0.69993,-1.84633 -2.95719,-2.77482 -0.7711,-0.31718 -1.5018,-0.69908 -1.62448,-0.84872 -0.35214,-0.42948 -0.28707,-1.09097 0.14982,-1.52787 0.33135,-0.33137 0.45901,-0.37261 1.15922,-0.37261 0.72538,0 0.82105,0.0334 1.22034,0.43274 0.26542,0.26543 0.43371,0.55866 0.43371,0.75704 0,0.41855 0.16636,0.51138 0.72747,0.40611 l 0.45542,-0.0848 -0.0809,-1.06362 c -0.0449,-0.58497 -0.11642,-1.15445 -0.1587,-1.26467 -0.11607,-0.30251 -1.0026,-0.49837 -2.28196,-0.50569 z m -35.94167,8e-4 c -0.23425,0.006 -0.50274,0.0306 -0.59736,0.0562 -0.23292,0.0629 -0.93701,0.14866 -1.13162,0.13801 -0.0868,-0.005 -2.02422,-0.017 -4.30567,-0.0277 l -4.14794,-0.0197 -0.12223,0.12617 c -0.16456,0.17178 -0.1991,0.41239 -0.23559,1.62153 -0.023,0.76432 -0.0175,1.01972 0.0246,1.0705 0.0337,0.0408 0.13476,0.0671 0.25925,0.0671 0.1118,0 0.28272,0.0239 0.38049,0.0533 0.2097,0.0628 0.22342,0.0492 0.32923,-0.32429 0.22022,-0.77706 0.32725,-1.01182 0.53722,-1.17696 0.12025,-0.0946 0.17054,-0.1 0.98869,-0.10351 l 0.86153,-0.004 0.0118,4.13613 0.0118,4.13612 0.11039,0.17547 c 0.0745,0.11795 0.15251,0.18276 0.23658,0.19715 0.23662,0.0404 1.11712,-0.0188 1.35735,-0.0917 0.13812,-0.0418 0.26685,-0.11444 0.3036,-0.17055 0.0538,-0.0822 0.0667,-0.74782 0.076,-4.20807 0.01,-3.59438 0.0188,-4.11555 0.0779,-4.15584 0.0423,-0.0288 0.37482,-0.0395 0.88815,-0.0286 0.76827,0.0163 0.82893,0.0242 0.97191,0.12222 0.14575,0.0999 0.34797,0.4496 0.34797,0.6013 0,0.0384 0.02,0.0822 0.0433,0.0966 0.0233,0.0144 0.0556,0.12141 0.072,0.23855 0.0162,0.11715 0.0709,0.30149 0.12125,0.40908 0.0827,0.17616 0.10278,0.19198 0.20897,0.16361 0.0649,-0.0173 0.23967,-0.0411 0.38837,-0.0531 0.14871,-0.0121 0.29411,-0.041 0.32333,-0.0652 0.0389,-0.0319 0.0467,-0.24203 0.0277,-0.78268 -0.0285,-0.80435 -0.0113,-0.87827 0.20502,-0.87827 0.10666,0 0.41303,0.23861 0.41303,0.32134 0,0.018 0.10769,0.22122 0.23953,0.45244 0.13181,0.23121 0.35966,0.63354 0.50666,0.89308 0.147,0.25954 0.29298,0.51258 0.32331,0.56284 0.0303,0.0503 0.0858,0.15238 0.12421,0.22673 0.0384,0.0744 0.14079,0.25642 0.2277,0.40512 0.0869,0.1487 0.18893,0.33178 0.22573,0.40614 0.0368,0.0744 0.0847,0.16486 0.10745,0.20206 0.0227,0.0371 0.14451,0.24329 0.2701,0.45739 l 0.22868,0.38935 0,2.0858 c 0,2.07259 5.1e-4,2.0877 0.0986,2.23072 0.11781,0.17206 0.27108,0.19914 0.9601,0.17052 0.55923,-0.0232 0.84992,-0.11663 0.97095,-0.31246 0.0838,-0.13539 0.0878,-0.23923 0.0878,-2.21692 l 0,-2.07495 0.19221,-0.32431 c 0.10534,-0.17805 0.2268,-0.37682 0.27011,-0.4426 0.0432,-0.0659 0.10084,-0.1753 0.12813,-0.24346 0.0273,-0.0682 0.0659,-0.12421 0.0858,-0.12421 0.0199,0 0.0597,-0.0561 0.0877,-0.1242 0.05,-0.12091 0.10795,-0.22348 0.26418,-0.4702 0.10732,-0.16949 0.55816,-0.92057 0.63974,-1.06558 0.0827,-0.14692 0.35506,-0.6022 0.45837,-0.7659 0.0416,-0.066 0.13068,-0.22109 0.19715,-0.34502 0.0665,-0.12389 0.14891,-0.25757 0.18333,-0.2967 0.0343,-0.0391 0.0622,-0.0842 0.0622,-0.0996 0,-0.0154 0.0636,-0.12254 0.14196,-0.23855 0.15463,-0.22915 0.21877,-0.5709 0.13601,-0.7255 -0.0912,-0.17048 -0.35648,-0.21461 -0.89602,-0.14983 -0.73873,0.0887 -0.71119,0.058 -1.53576,1.72404 -0.37109,0.74974 -0.73128,1.48465 -0.80042,1.63336 -0.11234,0.24161 -0.21689,0.37743 -0.29376,0.38148 -0.0145,8e-4 -0.0829,-0.10548 -0.15179,-0.23561 -0.0691,-0.1301 -0.17258,-0.31683 -0.23065,-0.41598 -0.0581,-0.0991 -0.13655,-0.24107 -0.1735,-0.31543 -0.0369,-0.0744 -0.13758,-0.2574 -0.22376,-0.40611 -0.0862,-0.1487 -0.22004,-0.39148 -0.29769,-0.54019 -0.36572,-0.70039 -0.97125,-1.70187 -1.10401,-1.82556 -0.11326,-0.10571 -0.14818,-0.11185 -0.54708,-0.10252 z m 82.46908,0.0521 c -0.19452,-0.0162 -0.45572,0.008 -0.80633,0.0354 -1.55272,0.12226 -1.81274,0.19893 -1.81274,0.53821 0,0.53692 0.13417,0.69592 0.58749,0.69592 l 0.43174,0 0,4.14992 c 0,2.76185 0.0471,4.23871 0.13998,4.41212 0.12346,0.23068 0.23456,0.25451 0.96502,0.20799 0.53467,-0.034 0.8657,-0.11794 0.94137,-0.23755 0.0643,-0.10153 0.11827,-1.14525 0.11927,-2.31942 l 0.002,-2.1351 1.97539,0 1.9754,0 0,2.03159 c 0,1.11704 0.0558,2.17805 0.12421,2.35786 0.11297,0.29711 0.18931,0.32627 0.83688,0.32627 1.30594,0 1.20555,0.41819 1.20555,-5.02327 0,-3.99785 -0.0293,-4.78331 -0.18434,-4.91189 -0.19805,-0.16438 -1.40961,-0.0745 -1.73979,0.12914 -0.13702,0.0845 -0.18823,0.54344 -0.21983,1.96258 l -0.0413,1.85318 -1.96653,0 -1.96553,0 0,-1.89556 c 0,-1.72294 0.0158,-2.12898 -0.56779,-2.17748 z m -40.99452,0.002 c -0.12975,0.006 -0.27782,0.0181 -0.44752,0.0315 -0.55356,0.0435 -1.19585,0.11742 -1.42733,0.16461 -0.39275,0.0801 -0.4184,0.11723 -0.38248,0.54709 0.035,0.41973 0.0786,0.46634 0.485,0.52441 l 0.44554,0.063 0.0324,4.20611 c 0.0177,2.31329 0.0589,4.27817 0.0917,4.3658 0.0384,0.10327 0.3297,0.15869 0.82802,0.15869 1.24397,0 1.27849,-0.0701 1.27849,-2.61217 l 0,-2.10355 1.97539,0 1.97542,0 0,2.21493 c 0,1.81161 0.035,2.24408 0.19123,2.37364 0.26005,0.21582 1.70026,0.11028 1.85613,-0.13604 0.0635,-0.10027 0.11629,-2.25749 0.11729,-4.79359 0.002,-5.34541 0.0635,-5.08225 -1.12866,-4.94244 -0.41779,0.049 -0.78342,0.16886 -0.87632,0.28684 -0.11001,0.13971 -0.15967,0.74748 -0.15967,1.96257 l 0,1.75954 -1.97542,0 -1.97539,0 0,-1.82361 c 0,-2.04154 0.005,-2.28906 -0.90392,-2.24746 z m 27.98782,0.0118 c -0.61444,-0.0536 -2.61316,0.22234 -2.61316,0.36077 0,0.0539 0.0359,0.27774 0.0799,0.49681 0.0705,0.35167 0.1298,0.39823 0.50961,0.39823 l 0.43077,0 -8e-4,4.62011 c -4.6e-4,2.97768 -0.0502,4.80006 -0.14097,5.1268 -0.13689,0.49312 -0.74862,1.20748 -1.3741,1.60574 -0.30313,0.19301 -0.30335,0.19745 -0.0809,0.66635 0.12307,0.25936 0.27662,0.47118 0.34106,0.47118 0.23958,0 1.46428,-0.68774 1.98723,-1.11584 0.34256,-0.28044 0.69341,-0.75188 0.95616,-1.2854 l 0.41499,-0.84279 0,-5.22831 0,-5.2293 -0.50962,-0.0443 z m -43.86595,0.0927 c -2.02189,0.0219 -4.61681,0.21174 -4.70389,0.44753 -0.0288,0.0777 -0.006,0.31185 0.0504,0.51948 0.0838,0.30756 0.17195,0.37842 0.47707,0.38245 l 0.37459,0.005 0.0334,4.13118 c 0.0227,2.78926 0.0801,4.18682 0.17547,4.30174 0.16957,0.20429 1.41485,0.23035 1.7753,0.0373 0.22689,-0.12143 0.24644,-0.28321 0.24644,-2.03849 l 0,-1.90738 1.57715,0 1.57619,0 0.0848,-0.52738 c 0.0643,-0.4017 0.0335,-0.58308 -0.13011,-0.76393 -0.19454,-0.21497 -0.35153,-0.22983 -1.66588,-0.15476 l -1.45001,0.0828 0.0354,-1.58111 0.0364,-1.58111 1.17402,-0.0364 c 1.35069,-0.042 1.57465,0.0795 1.81867,0.98573 0.12858,0.47748 0.17277,0.51654 0.58059,0.51654 l 0.44063,0 0,-1.24893 c 0,-0.80154 -0.0546,-1.30355 -0.15281,-1.4017 -0.13407,-0.13409 -1.14077,-0.18173 -2.3539,-0.16857 z m -52.33237,1.02516 c 0.2851,0 0.90234,0.14525 1.14443,0.2691 0.23145,0.11843 0.5031,0.38324 0.62594,0.61017 0.0855,0.15798 0.0966,0.24955 0.0956,0.74325 -0.002,0.5146 -0.0115,0.58512 -0.12124,0.81815 -0.11563,0.24566 -0.45073,0.62397 -0.553,0.62397 -0.0272,0 -0.0726,0.0222 -0.10055,0.0503 -0.0683,0.0683 -0.50172,0.21679 -0.64269,0.21982 -0.062,0.002 -0.24001,0.0286 -0.39527,0.0611 -0.49109,0.1029 -0.46133,0.21164 -0.46133,-1.68461 0,-1.84444 -0.0312,-1.71122 0.4081,-1.71122 z m 42.24048,0.008 c 1.56687,0.0219 2.80349,1.63979 2.83003,4.01685 0.0199,1.78544 -0.55583,3.04685 -1.62153,3.55257 -0.70838,0.33614 -1.58698,0.27093 -2.28,-0.16856 -1.04337,-0.66169 -1.62348,-1.99246 -1.62348,-3.7231 0,-1.79482 0.53105,-2.95648 1.56829,-3.42739 0.38597,-0.17524 0.76511,-0.25543 1.12669,-0.25037 z m 46.11932,0.003 0.35092,0 c 0.65484,0.002 1.28896,0.26058 1.6304,0.66635 0.29797,0.35416 0.3331,0.48904 0.2839,1.08234 -0.0732,0.88127 -0.50892,1.36703 -1.39679,1.55744 -0.34445,0.0739 -0.68055,0.13506 -0.74718,0.13506 -0.0707,0 -0.12125,-0.71835 -0.12125,-1.72109 l 0,-1.7201 z m 13.35367,1.73884 c 0.0114,-0.006 0.0209,-0.006 0.0277,8e-4 0.12188,0.13382 0.71642,1.64282 0.83392,2.11537 l 0.0877,0.34994 -0.97882,0 c -1.12754,0 -1.08444,0.16061 -0.42288,-1.57322 0.18353,-0.48102 0.37229,-0.84825 0.45244,-0.89308 z m -21.46721,0.0413 c 0.10514,-0.0597 0.97136,1.95346 0.97489,2.26619 0.002,0.11344 -0.27341,0.15871 -0.95418,0.15871 -0.52576,0 -0.95472,-0.043 -0.95322,-0.0956 0.006,-0.20799 0.83205,-2.27245 0.93251,-2.32928 z"
       id="path4166"
       inkscape:connector-curvature="0" />
    <path
       style="opacity:1;fill:#8bc34a;fill-opacity:1;stroke:none;stroke-width:0.1;stroke-linecap:round;stroke-miterlimit:4;stroke-dasharray:none;stroke-opacity:1"
       d="m 149.30153,614.16153 c -0.0647,-0.0472 -0.098,-0.11757 -0.0741,-0.15623 0.0363,-0.0588 0.42886,-0.26164 1.02751,-0.53084 0.41283,-0.18562 4.36778,-1.50424 5.54427,-1.8485 0.10514,-0.0308 0.37758,-0.11708 0.6054,-0.19181 0.22784,-0.0747 0.51461,-0.15865 0.63727,-0.1865 0.12268,-0.0279 0.32343,-0.0795 0.4461,-0.11462 0.12268,-0.0351 0.49547,-0.13942 0.82845,-0.23159 0.33299,-0.0922 0.7488,-0.20753 0.92404,-0.25635 0.33257,-0.0927 2.62805,-0.66472 3.34568,-0.83379 0.22781,-0.0535 0.5146,-0.12302 0.63728,-0.15409 0.12268,-0.0309 0.55281,-0.12725 0.9559,-0.21376 1.06474,-0.22854 1.08819,-0.23341 1.402,-0.29032 0.15771,-0.0286 0.51619,-0.10125 0.79659,-0.16143 0.53192,-0.11416 0.82565,-0.17208 1.46573,-0.28903 0.21029,-0.0384 0.62612,-0.11453 0.92404,-0.1691 0.29792,-0.0545 0.68508,-0.12211 0.86032,-0.1501 0.17523,-0.028 0.49069,-0.0799 0.701,-0.1153 0.21029,-0.0353 0.59743,-0.0968 0.86031,-0.1363 0.26288,-0.0395 0.62133,-0.0977 0.79659,-0.12922 0.17525,-0.0315 0.66276,-0.10359 1.08336,-0.16004 0.4206,-0.0564 0.93679,-0.12832 1.14709,-0.15965 0.2103,-0.0312 0.66914,-0.0885 1.01963,-0.12694 0.35051,-0.0385 0.82367,-0.0979 1.05151,-0.13204 0.61974,-0.0929 1.31972,-0.16448 3.98294,-0.40724 2.01722,-0.18387 2.53489,-0.21789 6.4683,-0.42494 2.03145,-0.10693 10.60557,-0.10701 12.71359,-1.4e-4 0.87624,0.0444 2.10937,0.10647 2.74027,0.13786 1.13944,0.0566 1.65761,0.0941 3.91922,0.28265 1.97486,0.1647 3.77957,0.33851 4.01481,0.38669 0.0876,0.018 0.44609,0.0607 0.79659,0.0949 0.73104,0.0715 1.27756,0.13688 2.3579,0.28272 0.4206,0.0567 0.97981,0.1311 1.24268,0.16516 0.26288,0.034 0.66436,0.0884 0.89218,0.12064 1.30561,0.18494 1.92813,0.2708 2.32604,0.32073 0.24535,0.0307 0.73287,0.10288 1.08337,0.16021 0.35049,0.0573 0.80933,0.13213 1.01962,0.16625 0.59461,0.0965 1.0343,0.17133 1.65692,0.28231 0.31544,0.0562 0.73126,0.12612 0.92403,0.15532 0.19277,0.0293 0.63728,0.10077 0.98778,0.15908 1.05806,0.17599 1.38441,0.22853 1.78435,0.28726 0.33588,0.0492 1.21238,0.19293 2.32605,0.3811 0.19278,0.0325 0.63728,0.10534 0.98779,0.16174 0.35049,0.0565 0.79498,0.12874 0.98776,0.1608 0.79237,0.13174 2.11342,0.33631 2.86772,0.4441 1.06766,0.15256 1.35787,0.19203 2.07113,0.2817 1.96164,0.24666 2.71562,0.29914 2.75234,0.19158 0.035,-0.10288 -0.76211,-0.93911 -1.34054,-1.40613 -0.53654,-0.43319 -1.33577,-0.97942 -1.85789,-1.26978 -0.99397,-0.55278 -1.32145,-0.72423 -2.43756,-1.27622 -0.70046,-0.34639 -1.22675,-0.64412 -1.22675,-0.69393 0,-0.12225 2.51985,-1.36073 3.82363,-1.87928 1.43028,-0.56885 2.02449,-0.71596 2.93146,-0.72568 l 0.73286,-0.008 0.63727,0.30902 c 1.52788,0.7409 3.17433,1.57637 3.34237,1.69604 0.10027,0.0715 0.19668,0.1298 0.21427,0.1298 0.0712,0 1.19364,0.68726 1.70085,1.04127 1.63441,1.14075 2.35697,2.0144 2.40999,2.91395 0.0396,0.67363 -0.282,1.36974 -0.86699,1.87581 -0.34336,0.29703 -1.07175,0.71276 -1.56922,0.89565 -0.24845,0.0913 -0.50908,0.19068 -0.57919,0.22074 -0.11346,0.0487 -1.15148,0.30733 -1.65692,0.41287 -0.41304,0.0863 -0.86158,0.15691 -1.62503,0.25596 -2.95554,0.38349 -8.05983,0.3644 -11.72581,-0.0438 -0.33297,-0.0371 -0.84915,-0.091 -1.14708,-0.11983 -0.85816,-0.0831 -1.68698,-0.17367 -2.58095,-0.28222 -0.45565,-0.0553 -1.07221,-0.12808 -1.37014,-0.1617 -0.64502,-0.0728 -1.24961,-0.15108 -2.19858,-0.28468 -0.38556,-0.0543 -0.90174,-0.1251 -1.14709,-0.15735 -0.24536,-0.0322 -0.76155,-0.10491 -1.14711,-0.16146 -0.38553,-0.0566 -0.88738,-0.12881 -1.11521,-0.1606 -0.78441,-0.10948 -1.30799,-0.18926 -1.91181,-0.29136 -0.33297,-0.0562 -0.77748,-0.12665 -0.98778,-0.15636 -0.49636,-0.0703 -1.01023,-0.15413 -1.72063,-0.28123 -0.31544,-0.0565 -0.7456,-0.12854 -0.9559,-0.16021 -0.44407,-0.067 -1.81641,-0.29382 -2.32606,-0.38465 -0.75126,-0.13392 -1.96328,-0.33182 -2.35789,-0.38506 -1.17369,-0.15828 -1.38283,-0.18899 -1.52946,-0.22464 -0.0877,-0.0213 -0.38874,-0.066 -0.66913,-0.0991 -0.99265,-0.11756 -1.4755,-0.17518 -2.32604,-0.27754 -1.83042,-0.22026 -4.60322,-0.40311 -8.22081,-0.54207 -4.08709,-0.15701 -10.6721,-0.0126 -17.14262,0.37559 -2.39086,0.14348 -4.78608,0.35368 -8.09334,0.71024 -0.86164,0.0929 -2.36155,0.28544 -3.44127,0.44177 -0.22782,0.0329 -0.64364,0.0919 -0.92404,0.13096 -0.2804,0.039 -0.75358,0.11282 -1.05151,0.16396 -0.29793,0.0513 -0.69939,0.11955 -0.89217,0.152 -1.03886,0.17484 -2.34143,0.43227 -3.21822,0.63599 -1.79258,0.41649 -2.4011,0.58422 -3.98295,1.09775 -0.7313,0.23741 -1.73344,0.47639 -2.61281,0.62307 -2.28228,0.38072 -3.48094,0.47643 -3.72561,0.29753 z"
       id="path4244"
       inkscape:connector-curvature="0" />
  </g>
</svg>
